<svg transform="scale(1)" version="1.1" id="Layer_1" xmlns="http://www.w3.org/2000/svg" xmlns:xlink="http://www.w3.org/1999/xlink" x="0px" y="0px" viewBox="0 0 500 500" xml:space="preserve" class="show_show__wrapper__graphic__5Waiy "><title>React</title><style type="text/css">
	.st0{fill:#000001;}
	.st1{fill:#F2EBEB;}
	.st2{fill:#3299F5;}
	.st3{fill:#EA8383;}
</style><g id="character"><path class="st0" d="M363.2,270.5c-10.6,0-21.4-4.6-32-13.8c-7.8-6.9-14.5-15-19.9-23.9l10.4-6c4.8,7.8,10.7,14.9,17.5,21
		c13,11.2,25.5,13.6,37.2,7c8.9-5,13.7-14.4,14.5-28c0.3-6.9-0.3-13.9-1.9-20.6l11.6-3c1.9,7.9,2.6,15.9,2.3,24
		c-0.9,17.9-8,31-20.6,38.1C376.6,268.6,370,270.4,363.2,270.5z"></path><path class="st0" d="M137.7,304.4c-1.8-67.8,22.3-92,23.3-93l4.2,4.3l4.2,4.3c-0.2,0.2-21.4,22.2-19.7,84.1L137.7,304.4z"></path><path class="st1" d="M158.5,337.9c0,0,7.8,7.7,12.2,4.7s-0.1-11-6.9-21.2s-4.7-29-4.7-29l-39.3-0.8c0,0,3.1,12.5,2.8,14.7
		c-0.7,6.4-1.9,12.9-2.9,17.9c0,0-5.6,20.7,5.5,32.9c1.5,1.6,11.4,8.9,10,1.6c0,0,11,6.3,11.5-2c0,0,1,1.1,6.3,3.1
		c7.1,2.6,7-4.4,6-8.4C157.8,346.9,157.6,342.3,158.5,337.9"></path><path class="st0" d="M128.6,352.8c2.6,1.7,4.9,3.5,7.3,5c1.2,0.8,2.4,1.5,3.7,2.1c1.3,0.6,2.7,0.9,4.2,0.9c-1.4,0.8-3.1,1-4.6,0.6
		c-1.5-0.4-3-1-4.3-1.9c-1.3-0.9-2.5-1.9-3.5-3C130.2,355.4,129.3,354.1,128.6,352.8z"></path><path class="st0" d="M139.8,350.9c1.4,1.2,2.8,2.3,4.1,3.4c1.3,1.1,2.8,2,4.3,2.9c1.5,0.9,3,1.5,4.6,2c1.7,0.4,3.5,0.5,5.2,0.4
		c-1.7,0.9-3.5,1.3-5.4,1.2c-1.9-0.2-3.7-0.8-5.4-1.8c-1.6-0.9-3.1-2.1-4.3-3.5C141.6,354.1,140.5,352.5,139.8,350.9z"></path><path class="st0" d="M158,327.7c0.3,1.5,0.5,3,0.5,4.5c0.1,1.5,0.1,3,0.1,4.4s-0.1,2.9-0.2,4.4s-0.2,2.9-0.4,4.5
		c-0.6-1.4-1-2.9-1.1-4.4c-0.2-1.5-0.3-3-0.2-4.5c0-1.5,0.1-3,0.4-4.5C157.2,330.6,157.5,329.2,158,327.7z"></path><polygon class="st0" points="234.4,391.2 242.6,295.3 216.2,293.1 218.1,389.8 	"></polygon><polygon class="st0" points="266.7,387.8 283,386.4 286.3,289.5 258.5,291.8 	"></polygon><path class="st1" d="M212.8,370c0,2.1,1.4,27-3.4,34.9s-31.6,7.1-29.9,18.5c0,0,57.9,5,58.6,0s2.7-49.8,2.7-49.8L212.8,370z"></path><path class="st1" d="M288.3,366.6c0,2.1-1.4,27.1,3.4,34.9s31.6,7.1,29.9,18.5c0,0-57.9,5-58.6,0s-2.7-49.8-2.7-49.8L288.3,366.6z"></path><path class="st2" d="M243,95.3c0,0,106.6-13.8,117.8,99.7s-133,150.1-183.5,92.8S128.5,104.9,243,95.3z"></path><path class="st1" d="M275.8,131.3c0,0,17.8-0.1,17.5,16.1s-24.8,18.9-32,9.9S256.7,130.7,275.8,131.3z"></path><path class="st1" d="M220,127.9c0,0-17.8-0.8-18.1,15.4s24,19.9,31.6,11.2S239,128.1,220,127.9z"></path><path class="st0" d="M275.6,137c0,0-8.9-0.5-9.1,9.8s11.9,12.6,15.7,7.1S285.1,137,275.6,137z"></path><path class="st0" d="M222.2,133.7c0,0-8.9-0.5-9.1,9.8s11.9,12.6,15.7,7S231.7,133.8,222.2,133.7z"></path><path class="st0" d="M221.4,170.1c1.4,5.7,4.3,10.8,8.4,14.9c2,1.9,4.4,3.5,7,4.5l1,0.4c0.3,0.1,0.7,0.2,1,0.3l2,0.6
		c0.7,0.1,1.4,0.2,2.1,0.3s1.4,0.3,2.1,0.3c2.7,0.3,5.5,0,8.1-0.9c2.6-0.9,5-2.4,6.9-4.3c4-4,6.6-9.4,8.2-15.1c-0.2,3-0.8,6-1.9,8.8
		c-1.1,2.9-2.6,5.6-4.6,7.9c-1,1.2-2.2,2.3-3.5,3.2c-1.3,0.9-2.7,1.7-4.2,2.2c-3,1.1-6.2,1.5-9.3,1.2c-0.8,0-1.5-0.2-2.3-0.3
		s-1.5-0.2-2.3-0.4l-2.2-0.7c-0.4-0.1-0.8-0.2-1.1-0.4l-1.1-0.5c-2.9-1.3-5.4-3.1-7.5-5.4C224,182.1,221.6,176.2,221.4,170.1z"></path><path class="st3" d="M182.4,173.9c0,0-10.7,7.7-4.5,15.6s20,1.2,20-7.8S189.3,171,182.4,173.9z"></path><path class="st3" d="M298.3,169.6c0,0-10.7,7.7-4.5,15.6s20,1.2,20-7.8S305.2,166.7,298.3,169.6z"></path><path class="st1" d="M417.3,201c0.5-3.6,10.9-26.2,8.1-46.1s-13.1-18.6-11.8-12.5s-1.3,23.9-1.3,23.9c-0.1-9.2-0.8-18.4-2.1-27.5
		c-2.1-17.1-11.8-15.3-11.5-7.6s-1.5,24.1-1.5,24.1c-0.4-33.4-17.4-34-15-26s1.2,38.6,1.2,38.6c-10.5-8.1-26-8.3-13.7,3.4
		s13.7,27.3,13.7,27.3s-5.8,18.2-3.8,17.1s40.4,4.2,40.4,0S417.3,201,417.3,201z"></path><path class="st0" d="M403.1,186.1c0.1-4.9-2.3-9.5-6.3-12.3c-2-1.4-4.1-2.6-6.3-3.4c-1.2-0.4-2.3-0.9-3.5-1.2s-2.4-0.7-3.6-1.1
		c1.3,0,2.5,0.1,3.8,0.2s2.5,0.4,3.8,0.7c0.6,0.2,1.2,0.4,1.8,0.6c0.6,0.2,1.2,0.4,1.8,0.7l1.7,0.9c0.6,0.3,1.1,0.7,1.6,1.1l0.8,0.6
		l0.7,0.7c0.5,0.4,1,0.9,1.4,1.5c0.8,1,1.5,2.2,2,3.5C403.8,180.8,403.9,183.5,403.1,186.1z"></path></g><g id="love"><path class="st1" d="M94.4,225.3c0,0-25.9-15.1-17.8-25.1s17.8,9.1,17.8,9.1s2.2-22.8,15.2-12.6S94.4,225.3,94.4,225.3z"></path><path class="st1" d="M374.7,371c0,0-25.9-15-17.8-25s17.8,9.1,17.8,9.1s2.2-22.8,15.2-12.6S374.7,371,374.7,371z"></path><path class="st1" d="M383.7,105.5c0,0-25.9-15.1-17.8-25.1s17.8,9.1,17.8,9.1s2.2-22.8,15.2-12.6S383.7,105.5,383.7,105.5z"></path><path class="st1" d="M118.5,110.3c0,0-25.9-15.1-17.8-25.1s17.8,9.1,17.8,9.1s2.2-22.8,15.2-12.6S118.5,110.3,118.5,110.3z"></path></g></svg>