<svg transform="scale(1)" id="_0748_Alarm_Ringing" xmlns="http://www.w3.org/2000/svg" viewBox="0 0 500 500" class="show_show__wrapper__graphic__5Waiy "><title>React</title><defs><style>.cls-1{fill:#d6b2a4;}.cls-2{fill:#fff;}.cls-3{fill:#3c4368;}.cls-4{fill:#ffde91;}.cls-5{fill:#af93a2;}.cls-6{fill:#292e54;}.cls-7{fill:#e6e7e8;}.cls-8{fill:#bcbec0;}</style></defs><g id="finger"><path class="cls-4" d="M97.91,241.47c-8.14,11.95-10.82,26.87-10.77,41.33,.04,10.14,2.2,21.72,10.9,26.93,5.86,3.51,13.21,3.15,19.96,2.14,14.85-2.22,29.31-7.03,42.53-14.15,9.19-4.95,18.41-11.89,20.93-22.01,2.09-8.41-.96-17.32-5.45-24.74-6.8-11.25-16.97-20.22-28.81-25.88-10.48-5.01-21.93-3.52-32.32,1.57-6.81,3.33-12.71,8.56-16.97,14.81Z"></path></g><g id="sleepy"><g><path class="cls-1" d="M177.78,324.33c.41,2.95,.93,5.96,2.44,8.53s4.22,4.63,7.2,4.54c2.88-.08,5.42-2.17,6.81-4.69,1.4-2.53,1.85-5.45,2.2-8.32,4.96-40.33-5.9-80.78-7.85-121.39-.13-2.71,1.08-5.26,3.15-7.02,3.63-3.08,5.66-8.09,4.79-12.8-1.12-6-6.94-10.8-13.04-10.62s-11.67,5.44-12.08,11.53c-.3,4.57,2.4,9.09,6.34,11.33,2.65,1.51,4.14,4.48,4.04,7.54-.49,14.24-.59,28.65-2.21,42.75-1.88,16.42-3.48,32.91-3.57,49.45-.05,9.74,.44,19.5,1.79,29.16Z"></path><path class="cls-1" d="M279.07,276.71c.31,2.25,.71,4.55,1.86,6.51,1.15,1.96,3.22,3.53,5.49,3.46,2.2-.06,4.13-1.65,5.2-3.58,1.06-1.93,1.41-4.16,1.68-6.34,3.78-30.76-4.5-61.6-5.98-92.57-.1-2.07,.82-4.01,2.4-5.35,2.77-2.35,4.32-6.17,3.65-9.76-.85-4.58-5.29-8.24-9.95-8.1-4.65,.14-8.9,4.15-9.21,8.79-.23,3.48,1.83,6.93,4.83,8.64,2.02,1.15,3.16,3.42,3.08,5.75-.37,10.86-.45,21.85-1.68,32.6-1.44,12.52-2.66,25.1-2.72,37.71-.04,7.43,.33,14.87,1.36,22.23Z"></path><path class="cls-1" d="M184.72,216.1c2.39,3.22,7.34,2.41,11.18,1.28,26.9-7.96,53.8-15.92,80.69-23.88,3.56-1.05,7.97-3.46,7.11-7.07-.49-2.08-2.76-3.35-4.9-3.42s-4.19,.79-6.17,1.6c-17.48,7.24-35.54,13.05-53.96,17.37-8.24,1.93-16.06,3.89-24.48,3.3-5.14-.36-14.32,4.3-9.48,10.82Z"></path><path class="cls-1" d="M214.34,291.13c.19,2.04,.42,4.17,1.56,5.88,1.13,1.71,3.47,2.81,5.29,1.88,2.09-1.06,2.36-3.89,2.33-6.23-.21-22.93-1.42-45.85-3.62-68.67-.28-2.9-2.33-18.92-6.46-14.77-2,2.01-1.16,8.34-1.24,10.86-.16,4.77-.26,9.55-.29,14.32-.15,18.93,.66,37.87,2.43,56.72Z"></path><path class="cls-1" d="M239.29,286.19c.29,1.57,.8,3.39,2.28,3.98,1.37,.54,2.97-.31,3.75-1.55,.79-1.24,.96-2.76,1.09-4.23,2.44-26.45,.52-53.3-5.67-79.14-.7-2.94-2.57-4.6-4.72-2.13-1.68,1.92-1.01,8.8-1.16,11.3-.49,7.94-.65,15.9-.49,23.86,.32,16.07,1.96,32.11,4.92,47.92Z"></path><path class="cls-1" d="M265.28,292.35c5.35-2.54,6.28-9.63,6.36-15.55,.3-21.26-.99-42.55-3.85-63.62-.46-3.41-1.96-19.93-6.38-20.64-5.65-.9-4.79,15.41-4.88,18.14-.57,17.56,.43,35.17,2.98,52.55,1.43,9.8,3.36,19.52,5.77,29.12Z"></path></g><path class="cls-7" d="M214.92,297.04c-9.81,3.64-20.09,8.15-25.21,16.44-3.92,6.35-4.16,13.93-4.31,21.17-.14,7.03-.14,14.54,4.19,20.41,4.89,6.64,14.03,9.52,22.53,11.94,29.08,8.27,58.39,16.16,88.47,20.76,15.03,2.3,30.53,3.76,45.46,.98,19.61-3.65,36.56-14.23,52.89-24.57,8.14-5.16,16.52-10.53,21.69-18.15s6.32-18.14,.02-25.05c-5.1-5.59-13.57-7.53-21.41-9.3-26.25-5.92-52.02-13.51-77.07-22.66-9.09-3.32-18.8-9.59-28.44-11.29-10.83-1.92-24.24,3.01-34.53,5.6-15.05,3.78-29.84,8.37-44.28,13.72Z"></path><path class="cls-5" d="M308.85,345.34c5.36,5.25,11.9,10.37,19.4,10.1,5.04-.18,9.73-2.85,13.3-6.41,3.57-3.56,6.16-7.96,8.6-12.37,2.95-5.31,5.8-10.81,6.85-16.79s.07-12.6-3.92-17.18c-3.93-4.51-10.03-6.36-15.82-7.89-17.78-4.67-35.86-8.19-54.09-10.53-18-2.31-4.08,19.56-.02,27.01,6.82,12.53,15.5,24.06,25.7,34.05Z"></path><path class="cls-5" d="M256.98,290.59c-7.23-1.26-14.08-4.23-20.46-7.86-22.98-13.06-40.6-35.26-48.1-60.61-10.3,10.11-19.59,21.24-27.72,33.16,5.82,9.88,11.67,19.81,18.88,28.72,7.21,8.92,15.89,16.86,26.23,21.83,15.09,7.25,32.63,7.67,49.21,5.31,5.45-.78,10.92-1.85,15.94-4.11,5.02-2.26,9.61-5.79,12.31-10.59,1.02-1.81,1.77-3.97,1.11-5.94-1.75-5.25-7.89-1.23-11.03-.41-5.32,1.4-10.96,1.43-16.36,.49Z"></path><path class="cls-8" d="M360.2,370.7s-.01,0-.02,0c-39.58-1.53-81.21-8.67-131.04-22.49-8.73-2.42-16.51-4.77-23.32-9.06-7.88-4.96-12.75-11.83-13.34-18.85-.02-.24,.16-.44,.39-.46,.25-.03,.44,.16,.46,.39,.57,6.75,5.29,13.38,12.94,18.2,6.71,4.22,14.43,6.55,23.09,8.96,49.76,13.8,91.33,20.94,130.84,22.46,.24,0,.42,.21,.41,.44,0,.23-.2,.41-.43,.41Z"></path><path class="cls-8" d="M284.06,362.84c5.62-9.46,13.65-17.86,23.88-21.9,6.14-2.42,12.91-3.23,18.72-6.37,8.46-4.58,13.6-13.35,18.97-21.34,5.36-7.99,12.16-16.11,21.6-17.96,5.23-1.02,10.61,.04,15.83,1.09,11.66,2.36,23.32,4.73,34.98,7.09,6.92,1.4,14.17,2.96,19.51,7.58,7.91,6.84,9.46,19,6.2,28.93-3.26,9.94-10.46,18.06-17.96,25.34-20.7,20.11-46.78,36.78-75.61,38.07-19.24,.86-37.81-5.11-56.32-9.43-4.75-1.11-17.67-1.37-19.29-7.39-1.66-6.17,6.46-18.64,9.49-23.74Z"></path><path class="cls-3" d="M223.28,257.58c-1.72,3.38-.25,7.59,3.12,9.33,5.96,3.08,11.88,.31,17.25-2.35,9.22,16.49,23.23,30.26,39.86,39.22,16.63,8.96,35.84,13.07,54.68,11.69,1.21,4.99,2.58,10.27,6.8,13.51,2.33,1.78,5.38,2.54,8.14,1.55,5.21-1.87,5.46-8,3.07-12.04-1.92-3.24-5.14-5.45-8.26-7.56,10.41-9.25,18.03-21.59,21.63-35.03,3.43-12.8,3.39-26.74,7.96-38.97,1.78-4.76-3.43-9.3-7.7-6.55-.03,.02-.06,.04-.1,.06-3.22,2.13-5.09,6.14-4.63,9.98-14.75,.6-29.37,4.1-42.79,10.24-5.27-14.97-19.54-26.35-35.3-28.17-.69-4.22-2.72-8.2-5.67-11.3-2.71-2.85-7.49-.67-7.16,3.25,.24,2.89,1.71,5.69,4.23,7.15-2.61-1.51-14.48,8.72-16.42,10.46-4.95,4.43-9.19,9.67-12.47,15.45-2.79,4.92-3.06,12.27-9.66,9.88-4.88-1.77-13.05-6.69-16.58,.21Z"></path><path class="cls-4" d="M307.69,236.2c-.79,3.21-.69,6.56-.37,9.85,.19,1.99,.47,4.02,1.32,5.83,.85,1.81,2.35,3.42,4.29,3.93,2.71,.72,5.61-.86,7.28-3.12s2.37-5.06,3.03-7.79c-.68,2.13-1.36,4.34-1.07,6.55,.3,2.21,1.88,4.42,4.1,4.67,2.77,.32,4.92-2.35,6.16-4.85,2.34-4.71,3.61-10.18,2.3-15.28-3.61-14.07-23.63-13.67-27.03,.2Z"></path><g><path class="cls-4" d="M79.23,165.16c-1.06,4.02-1.89,8.21-1.22,12.31,.67,4.1,3.1,8.13,6.96,9.68,3.86,1.55,8.39,.34,11.78-2.07s5.88-5.86,8.3-9.24c-5.05,12.1-6.96,25.49-5.49,38.51,.96,8.5,4.25,17.93,12.16,21.18,6.23,2.56,13.42,.4,19.3-2.89,11.46-6.4,20.43-17.13,24.69-29.54,1.31-3.81,2.19-7.86,1.76-11.87-.43-4.01-2.33-7.99-5.66-10.26-3.39-2.31-7.91-2.58-11.82-1.33-3.91,1.25-7.26,3.87-10.02,6.9,.12-6.04,1.9-11.9,3.4-17.76s2.73-11.95,1.73-17.91c-2.22-13.16-17.94-18.39-30.01-17.01-14.54,1.66-22.63,19.03-25.85,31.29Z"></path><path class="cls-2" d="M89.3,179.62c-.24,0-.49-.02-.74-.06-2.21-.34-4.08-2.27-5-5.17h0c-1.44-4.51-.75-11.09,1.57-14.96,2.2-3.68,5-3.04,8.54-2.21,.55,.13,1.12,.26,1.71,.38,2.87,.59,6.37,2.46,6.77,5.77,.26,2.14-.87,4.1-1.96,5.77-1.37,2.12-2.86,4.2-4.41,6.18-1.48,1.89-3.71,4.29-6.49,4.29Zm-4.78-5.53c.62,1.95,2.05,4.15,4.2,4.48,1.99,.31,3.98-.93,6.29-3.87,1.54-1.96,3.01-4.02,4.36-6.11,.99-1.52,2.02-3.29,1.8-5.1-.34-2.78-3.44-4.39-5.99-4.91-.6-.12-1.18-.26-1.74-.39-3.51-.81-5.63-1.3-7.45,1.75-2.19,3.66-2.83,9.87-1.47,14.15h0Z"></path></g><path class="cls-2" d="M289.31,389.5l-.99-.17c2.97-17.58,8.99-29.47,18.4-36.33,6.47-4.72,14.44-6.9,22.14-9.01,8.57-2.35,17.43-4.77,23.96-10.73,4.05-3.69,6.95-8.54,9.75-13.23,1.15-1.92,2.33-3.9,3.58-5.79,3.86-5.81,10.24-12.86,18.71-13.43l.07,1c-8.07,.55-14.21,7.37-17.95,12.99-1.24,1.87-2.42,3.84-3.56,5.75-2.84,4.75-5.77,9.66-9.93,13.45-6.71,6.11-15.69,8.57-24.37,10.95-7.62,2.09-15.49,4.24-21.82,8.86-9.19,6.71-15.08,18.38-18,35.69Z"></path></g><g id="actions"><g><path class="cls-5" d="M437.56,248.1c-1.14,7.29,6.02,8.49,8.86,1.48,.04-.09,.07-.17,.11-.26,15.81-39.03,31.82-78.71,39.84-119.36,2.44-12.39-3.8-14.64-9.98-3.63-5.98,10.65-10.79,23.09-15.25,34.6-9.09,23.47-16.14,47.76-20.91,72.05-.99,5.05-1.88,10.09-2.67,15.13Z"></path><path class="cls-5" d="M431.41,270.63c-3.74,1.46-6.48,4.94-6.58,8.96,0,.02,0,.05,0,.07-.05,2.41,.76,4.96,2.65,6.45,1.92,1.51,4.65,1.68,6.99,.97,3.43-1.03,6.27-3.86,7.31-7.3,.89-2.92,.68-8.53-2.49-10.16-1.94-1-5.03-.1-7.88,1.01Z"></path></g></g><g id="alarm"><path class="cls-3" d="M59.71,213.22c-7.72-.33-15.88,1.79-21.27,7.34-4.7,4.84-6.78,11.75-7.02,18.49-.51,14.24,7.02,28.5,19.07,36.1,1.39,.88,3.1,1.69,4.62,1.06,1.15-.48,1.83-1.65,2.43-2.75,7.63-14.06,15.25-28.13,22.89-42.19,3.1-5.71,6.49-9.2,.23-13.17-5.4-3.43-14.72-4.62-20.95-4.88Z"></path><path class="cls-3" d="M146.7,186.53c-1.29,2.64-2.33,5.71-1.32,8.47,1.3,3.55,5.35,5.14,8.94,6.3,18.51,6.01,37.02,12.02,55.53,18.03,2.12,.69,4.49,1.36,6.49,.4,3.51-1.69,3.23-6.72,2.39-10.52-1.98-9.08-3.99-18.26-8.09-26.59-5.69-11.57-15.41-21.95-28.95-20.1-14.7,2.01-28.35,10.46-35,24.01Z"></path><path class="cls-3" d="M78.31,202.43c-1.31,1.19-2.55,2.54-3.12,4.22s-.3,3.74,1.05,4.88c1.41,1.19,3.58,1.05,5.19,.16,1.61-.89,2.8-2.37,3.94-3.82,3.43,5.31,7.13,10.44,11.1,15.36,1.53,1.89,4.1,3.92,6.08,2.51,1.12-.8,1.37-2.42,.95-3.73-.42-1.31-1.36-2.37-2.27-3.39-3.79-4.23-7.58-8.46-11.36-12.68,2.16-1.02,4.39-2.09,5.96-3.89,3.66-4.18,.88-9.56-4.53-8.69-3.62,.58-10.37,6.68-12.98,9.07Z"></path><path class="cls-6" d="M94.2,226.09c-20.41,16.12-31.92,41.82-29.26,66.7,2.65,24.88,19.64,48.14,43.72,58.96,29.71,13.34,67.93,6.26,91.16-15.62s30.76-56.64,20.06-85.82c-3.7-10.1-9.52-19.72-18.08-26.78-12.3-10.15-34.13-16.31-50.48-16.39-20.6-.1-41.32,6.48-57.12,18.96Z"></path><path class="cls-7" d="M81.5,294.46c3.64,18.99,17.59,35.47,35.37,43.06,17.79,7.59,38.88,6.42,56.17-2.25,12.82-6.43,23.68-16.91,29.97-29.8,8.64-17.7,8.05-39.61-1.54-56.81-9.59-17.21-27.9-29.24-47.5-31.21-39.56-3.97-80.14,36.92-72.47,77.01Z"></path><path class="cls-6" d="M133.97,373.08c.99,2.26,3.1,4.82,5.41,3.92,1.52-.59,2.11-2.41,2.39-4.01,1.03-5.94,.31-12.18-2.04-17.73-.83-1.96-1.98-3.95-3.9-4.85-9.91-4.64-3.26,19.51-1.86,22.68Z"></path><path class="cls-6" d="M219.65,325.98c1.84,1.05,3.84,1.95,5.95,2.03s4.37-.82,5.43-2.65c1.72-2.98-.32-6.72-2.67-9.23-3.44-3.68-15.24-13.62-20.31-7.85-5.24,5.97,7.45,15.34,11.59,17.71Z"></path><path class="cls-4" d="M118.03,249.32c.06,1.26,.44,2.79,1.66,3.09,1.87,.47,2.7-2.28,2.61-4.21,.95,6.53,4.39,12.49,8.75,17.44s9.62,9.01,14.85,13.03c-2.93,3.83-1.09,10.28,3.42,11.98s10.15-1.93,10.47-6.74c.32-4.81-4.79-9.16-9.49-8.07-1.62-13.2-8.97-25.6-19.77-33.36,.99,1.59,3.84,.73,4.28-1.09,.43-1.83-.97-3.68-2.69-4.42s-3.67-.67-5.55-.61c-3.2,.09-5.23-1.12-6.94,1.89s-1.77,7.8-1.61,11.09Z"></path><path class="cls-4" d="M136.36,318.37c.9-.39,1.92-1.09,1.81-2.07-.18-1.5-2.41-1.35-3.8-.75,4.52-2.49,7.93-6.66,10.35-11.21s3.94-9.53,5.45-14.46c3.61,1.09,7.82-2.04,7.82-5.81s-4.21-6.9-7.82-5.81-5.38,6.03-3.3,9.17c-9.22,4.82-16.27,13.62-18.98,23.66,.89-1.16-.52-3.02-1.98-2.83s-2.42,1.73-2.5,3.19c-.07,1.47,.52,2.87,1.08,4.23,.95,2.32,.62,4.14,3.3,4.56s6.2-.85,8.56-1.88Z"></path><path class="cls-6" d="M94.91,307.85c-.44,.84-.72,1.88-.29,2.73,.58,1.15,2.16,1.36,3.43,1.13,3.5-.64,6.75-3.8,7.04-7.41-3.69-2.12-8.27-.14-10.18,3.55Z"></path><path class="cls-6" d="M192.58,257.15c-2.19,.6-4.51,1.29-6,2.99-1.49,1.71-1.62,4.79,.33,5.96,1.7,1.01,3.86,.1,5.53-.96,1.06-.67,2.12-1.43,2.81-2.48s.98-2.45,.43-3.58-2.09-1.77-3.17-1.11"></path><path class="cls-6" d="M163.2,321.1c.74,2.42,2.72,4.42,5.13,5.18,.85,.27,1.83,.38,2.59-.08,1.15-.69,1.3-2.29,1.09-3.61-.41-2.6-2.28-6.92-5.14-7.68-3.8-1.01-4.55,3.34-3.67,6.18Z"></path><path class="cls-8" d="M43.88,285.95c-8.74-3.5-16.15-9.92-20.86-18.07-4.71-8.15-6.58-17.77-5.25-27.1l.99,.14c-1.29,9.1,.53,18.5,5.13,26.45,4.6,7.96,11.84,14.22,20.37,17.64l-.37,.93Z"></path><path class="cls-8" d="M26.49,291.84c-6.48-3.06-11.54-8.69-13.87-15.46l.95-.33c2.22,6.42,7.21,11.99,13.35,14.89l-.43,.9Z"></path><path class="cls-8" d="M156.91,156.35l-.66-.75c6.57-5.8,15.02-9.2,23.78-9.55,8.77-.35,17.46,2.34,24.48,7.59l-.6,.8c-6.84-5.11-15.32-7.73-23.84-7.39-8.53,.35-16.76,3.65-23.16,9.3Z"></path><path class="cls-8" d="M198,138.76c-6.55-4.54-15.54-5.52-22.92-2.49l-.38-.92c7.68-3.16,17.05-2.15,23.87,2.59l-.57,.82Z"></path></g><g id="finger-2"><path class="cls-4" d="M34.21,296.94c-4.4,4.01-7.72,9.59-7.66,15.54,.05,5.81,3.3,11.2,7.54,15.17,7.65,7.16,18.82,10.36,29.1,8.33-1.42,5.92-2.85,12-2.06,18.03,.79,6.03,4.28,12.11,10,14.18,4.13,1.49,8.71,.73,12.97-.32,6.88-1.7,14.08-4.45,18-10.35,3.73-5.62,3.53-13.57-.48-18.99-4.01-5.42-11.55-7.94-18.01-6.02,7.78-4.07,11.08-14.27,8.75-22.74s-9.29-15.09-17.21-18.87c-6.24-2.97-16.42-6.69-23.44-5.02-5.76,1.37-13.29,7.23-17.49,11.06Z"></path><path class="cls-2" d="M66.8,328.89c-1.97,0-3.8-.57-5.16-1.62-1.8-1.4-2.97-3.73-3.48-6.94-.75-4.72-.01-13.42,3.97-17.13,1.72-1.6,3.84-2.13,6.3-1.55,4.54,1.06,10.47,4.67,13.01,9.49,1.44,2.72,1.65,5.58,.61,8.27-1.36,3.52-4.74,5.65-7.53,7.12-1.79,.94-3.95,1.95-6.29,2.27-.48,.07-.96,.1-1.43,.1Zm-.21-26.47c-1.43,0-2.7,.5-3.77,1.5-3.56,3.31-4.42,11.56-3.67,16.24h0c.47,2.94,1.52,5.07,3.11,6.31,1.47,1.15,3.6,1.63,5.84,1.32,2.2-.3,4.25-1.26,5.96-2.16,2.63-1.38,5.82-3.38,7.06-6.6,.94-2.44,.76-4.94-.56-7.44-2.41-4.56-8.04-7.97-12.36-8.98-.56-.13-1.1-.2-1.62-.2Z"></path><rect class="cls-2" x="64.89" y="332.72" width="18.28" height="1" transform="translate(-58.69 18.73) rotate(-10.35)"></rect><path class="cls-2" d="M92.15,359.77c-.36,0-.71-.05-1.04-.15h0c-2.58-.76-4.92-4.41-6.1-7.69-1.25-3.46-1.29-6.55-.13-8.28,1.34-1.98,4.05-3.03,7.26-2.8,3.6,.26,6.79,2.02,7.94,4.4,1.56,3.22-.24,6.88-2.2,10.04-.69,1.1-1.47,2.35-2.57,3.27-.96,.79-2.08,1.22-3.14,1.22Zm-.89-17.95c-2.49,0-4.54,.87-5.56,2.39-.97,1.44-.88,4.27,.24,7.38,1.3,3.6,3.54,6.51,5.44,7.07h0c1.19,.35,2.47-.23,3.27-.88,.98-.81,1.68-1.93,2.36-3.02,1.82-2.92,3.5-6.29,2.15-9.07-1-2.06-3.86-3.61-7.11-3.84-.27-.02-.53-.03-.79-.03Z"></path></g><g id="kriiing"><path class="cls-5" d="M231.73,146.64c-1.21,0-2.31-.82-2.62-2.04-3.61-14.43-6-29.26-7.12-44.09-.11-1.49,1-2.78,2.49-2.89,1.53-.12,2.78,1,2.89,2.49,1.09,14.52,3.44,29.05,6.97,43.18,.36,1.45-.52,2.91-1.96,3.27-.22,.05-.44,.08-.66,.08Z"></path><path class="cls-5" d="M247.7,133.01c-.38,0-.76-.08-1.13-.25-6.83-3.16-13.95-5.86-21.15-8.02-.85-.25-1.51-.91-1.79-1.75-.27-.84-.12-1.76,.41-2.47l15.31-20.26c.9-1.19,2.59-1.43,3.78-.53,1.19,.9,1.42,2.59,.53,3.78l-13,17.2c6.18,2.02,12.28,4.41,18.17,7.14,1.35,.63,1.94,2.23,1.32,3.58-.46,.99-1.43,1.57-2.45,1.57Z"></path><path class="cls-5" d="M259.06,142.03c-.12,0-.24,0-.37-.03-1.3-.18-2.28-1.26-2.33-2.56l-1.49-36.63c-.06-1.49,1.1-2.75,2.59-2.81,1.48-.06,2.75,1.1,2.81,2.59l1.37,33.63c.54,.68,.74,1.62,.45,2.51l-.46,1.43c-.36,1.12-1.41,1.87-2.57,1.87Z"></path><path class="cls-5" d="M273.95,135.37c-.73,0-1.47-.3-2-.88-4.6-5.06-9.9-9.43-15.73-13-1.02-.62-1.51-1.84-1.2-3s1.34-1.97,2.53-2c4.42-.13,8.86-2.13,11.88-5.36,1.63-1.74,2.82-4.39,1.82-5.88-.61-.91-2.11-1.46-4.01-1.48-4.26,0-8.57,2.26-10.92,5.83-.82,1.24-2.49,1.59-3.74,.77-1.24-.82-1.59-2.49-.77-3.74,3.36-5.1,9.23-8.26,15.34-8.26,.04,0,.09,0,.13,0,3.74,.03,6.82,1.44,8.45,3.87,2.71,4.05,.77,9.23-2.36,12.57-2.44,2.6-5.49,4.57-8.82,5.76,4.13,3.04,7.94,6.47,11.4,10.27,1,1.1,.92,2.81-.18,3.81-.52,.47-1.17,.7-1.81,.7Z"></path><path class="cls-5" d="M286.6,138.99s-.09,0-.13,0c-1.49-.07-2.64-1.33-2.57-2.82,.52-11.18,1.68-22.44,3.45-33.47,.24-1.47,1.63-2.47,3.09-2.24,1.47,.24,2.47,1.62,2.24,3.09-1.74,10.83-2.88,21.89-3.39,32.86-.07,1.45-1.26,2.57-2.69,2.57Z"></path><path class="cls-5" d="M302.12,157.71c-.13,0-.26,0-.39-.03-1.48-.21-2.5-1.58-2.29-3.06,2.63-18.21,6.49-36.42,11.49-54.13,.41-1.43,1.9-2.27,3.33-1.86,1.44,.4,2.27,1.9,1.86,3.33-4.93,17.48-8.75,35.45-11.34,53.43-.19,1.34-1.35,2.31-2.67,2.31Z"></path><path class="cls-5" d="M320.66,173.38c-.11,0-.23,0-.35-.02-1.48-.19-2.52-1.54-2.33-3.02,3.14-24.52,8.96-48.75,17.3-72.03,.5-1.4,2.04-2.14,3.45-1.63,1.4,.5,2.13,2.05,1.63,3.45-8.2,22.91-13.93,46.76-17.02,70.89-.17,1.36-1.34,2.36-2.67,2.36Z"></path><path class="cls-5" d="M342.92,167.39c-1.46,0-2.67-1.17-2.7-2.64-.29-13.75,1.02-27.55,3.87-41,.31-1.46,1.75-2.39,3.2-2.08,1.46,.31,2.39,1.74,2.08,3.2-2.77,13.05-4.03,26.43-3.75,39.77,.03,1.49-1.15,2.72-2.64,2.75-.02,0-.04,0-.06,0Z"></path><path class="cls-5" d="M361.53,162.59s-.06,0-.09,0c-1.49-.05-2.66-1.3-2.61-2.79l.87-26.39c.05-1.49,1.35-2.64,2.79-2.61,1.49,.05,2.66,1.3,2.61,2.79l-.87,26.39c-.05,1.46-1.25,2.61-2.7,2.61Z"></path><path class="cls-5" d="M375.75,182.12c-.06,0-.13,0-.19,0-1.33-.1-2.39-1.14-2.5-2.47-1.25-14.92-1.55-30.08-.9-45.06,.07-1.49,1.38-2.65,2.81-2.58,1.49,.07,2.64,1.33,2.58,2.81-.59,13.38-.39,26.91,.57,40.28,.69,.64,1.02,1.61,.8,2.59l-.54,2.33c-.28,1.23-1.38,2.09-2.63,2.09Z"></path><path class="cls-5" d="M394.48,172.62c-.89,0-1.76-.45-2.27-1.23l-21.14-32.72c-.81-1.25-.45-2.92,.8-3.73,1.25-.81,2.92-.45,3.73,.8l13.98,21.64c-1.2-8.14-2.04-16.35-2.52-24.53-.09-1.49,1.05-2.77,2.54-2.85,1.53-.09,2.77,1.05,2.85,2.54,.72,12.34,2.29,24.75,4.67,36.87,.25,1.27-.44,2.54-1.64,3.02-.33,.13-.67,.2-1.01,.2Z"></path><path class="cls-5" d="M421.24,172.33c-3.81,0-7.63-1.21-10.55-3.34-5.68-4.13-9.22-11.67-9.48-20.16-.2-6.4,1.32-12.24,4.4-16.89,3.58-5.42,9.25-8.95,15.18-9.46,1.48-.13,2.79,.97,2.92,2.46,.13,1.49-.98,2.79-2.46,2.92-4.23,.36-8.5,3.06-11.13,7.05-3.1,4.69-3.62,10.07-3.51,13.75,.21,6.83,2.92,12.8,7.26,15.96,4.22,3.07,11.38,3.42,14.92-.98,1.85-2.3,2.6-5.79,2.06-9.59-.53-3.72-2.14-7.38-3.7-10.91-.61-1.39-1.28-2.78-2.15-3.16-1.08-.47-2.8,.53-3.95,1.66-.5,.49-.97,1.02-1.45,1.55-1.31,1.46-2.79,3.11-4.87,4.16-1.2,.61-2.67,.23-3.44-.88-.77-1.11-.59-2.62,.41-3.53l1.17-1.06c.33-.3,.72-.5,1.12-.61,.53-.51,1.06-1.09,1.59-1.69,.55-.61,1.1-1.22,1.68-1.8,3.09-3.03,6.89-4.09,9.91-2.75,2.86,1.26,4.14,4.18,4.91,5.92,1.62,3.69,3.46,7.86,4.1,12.32,.75,5.27-.41,10.27-3.19,13.73-2.96,3.69-7.35,5.31-11.75,5.31Z"></path></g></svg>