<svg transform="scale(1)" version="1.1" id="_x30_798_x5F_Dream" xmlns="http://www.w3.org/2000/svg" xmlns:xlink="http://www.w3.org/1999/xlink" x="0px" y="0px" width="500px" height="500px" viewBox="0 0 500 500" xml:space="preserve" class="show_show__wrapper__graphic__5Waiy "><title>React</title><style type="text/css">
	.st0{fill:#FFDC32;}
	.st1{fill:#005596;}
	.st2{fill:#FFFFFF;}
	.st3{fill:#FFB0CC;}
	.st4{fill:#000001;}
</style><g id="bed"><path class="st0" d="M38.65,239.48h11.22H195.9v69.16c0,0-137.63,0-137.9,0.18c-1.69-0.01-3.39,0.49-4.95,1.72
		c-2.22,1.49-3.66,4.07-3.78,6.74v24.3H461.4v38.16h-9.87l-3.82,39.47h-9.67l-3.94-39.49H296.95l-3.87,39.32h-9.49l-3.82-39.5
		h-75.16l-3.93,39.67h-9.51l-3.93-39.39H64.92L61,419.15h-9.37l-3.92-39.45h-9.34L38.65,239.48z"></path><path class="st1" d="M49.5,341.74v-24.05c0-4.94,4.01-8.95,8.95-8.95h386.11c4.94,0,8.95,4.01,8.95,8.95v24.05H49.5z"></path><path class="st1" d="M187.78,284.26c-3.86-0.52-7.76-0.79-11.65-0.79c-2.43,0-4.89,0.1-7.25,0.69c-1.86,0.46-3.63,1.21-5.38,2
		c-1.38,0.62-2.75,1.28-3.94,2.21c-2.42,1.91-3.87,4.91-4.14,7.97c-0.05,0.63-0.06,1.28,0.15,1.87c0.21,0.59,0.67,1.13,1.28,1.29
		c1.18,0.3,2.33-0.85,3.53-0.66c0.6,0.1,1.09,0.52,1.52,0.95c2.3,2.33,3.69,5.54,3.81,8.81c0,0,15.01,0,15.09-0.11
		c1.8-1.69,3.7-3.55,4.15-5.97c0.25-1.37,0.01-2.77-0.08-4.15c-0.09-1.39,0.01-2.88,0.83-4c0.56-0.76,1.42-1.31,1.78-2.17
		c0.34-0.8,0.18-1.72-0.08-2.54c-0.26-0.82-0.64-1.62-0.74-2.48S186.77,285.35,187.78,284.26z"></path><path class="st2" d="M179.91,308.82c1.13-0.91,2.25-1.87,3.06-3.07c1.59-2.34,1.88-5.31,1.93-8.14c0.02-0.83,0.02-1.69,0.34-2.46
		c0.49-1.17,1.64-1.98,2.04-3.17c0.39-1.14,0.02-2.38-0.29-3.55c-0.3-1.17-0.52-2.49,0.12-3.51c0.8-1.29,2.56-1.52,4.09-1.56
		c1.66-0.04,3.33-0.02,5.11,0.29c0.24,2.01-1.58,3.62-2.35,5.49c-1.04,2.55-0.08,5.42-0.02,8.17c0.05,2.18-0.48,4.32-1,6.43
		c-0.48,1.92-1.05,3.99-2.63,5.17L179.91,308.82z"></path><path class="st2" d="M397.36,308.72h17.11c0,0-3.45,2.01-3.61,2.43c-1.4,0.29-2.59,1.21-3.59,2.22c-1,1.02-1.88,2.16-2.97,3.09
		c-2.86,2.46-6.78,3.15-10.44,4.1c-2.61,0.67-5.18,1.52-7.58,2.73c-2.6,1.3-4.96,3.01-7.32,4.71c-1.36,0.98-2.71,1.95-4.31,3.09
		c-3.89,0.27-7.81,0.54-11.56,1.61c-3.33,0.95-6.46,2.51-9.75,3.58c-7.19,2.34-15.15,2.24-22.28-0.27
		c-1.56-0.55-3.09-1.21-4.44-2.15c-5.14-3.55-7.07-10.33-11.86-14.64c-3.75-4.45-8.51-8.04-13.81-10.43h-30.33
		c0,0-3.95,3.31-4.03,3.64c-1.56,0.8-2.7,2.25-3.5,3.8s-1.3,3.24-1.91,4.89c-1.53,4.15-3.77,8.12-7.06,11.08
		c-3.39,3.06-7.68,4.88-11.88,6.65c-1.95,0.82-3.9,1.65-6.05,2.47c-3.61,0.93-7.21,1.87-10.82,2.8c-1.62,0.42-3.25,0.84-4.83,1.42
		c-6.07,2.21-11.08,6.55-16.68,9.75c-1.47,0.84-3,1.6-4.61,2.12c-1.91,0.61-3.9,0.86-5.89,1.08c-4.07,0.45-8.35,0.78-12.12-0.83
		c-6.27-2.68-9.39-9.9-15.19-13.48c-1.26-0.78-2.64-1.38-3.82-2.27c0,0-5.81-0.02-5.75,0.1c-0.65,1.4-1.72,2.59-3.03,3.4
		c-2.79,1.72-6.48,1.64-9.1,3.62c-2.14,1.62-3.14,4.31-4.74,6.47c-0.62,0.83-1.52,1.66-2.53,1.49c-0.61-0.1-1.12-0.56-1.42-1.1
		s-0.44-1.16-0.56-1.77c-0.72-3.7-1.05-7.58-0.03-11.2c0.13-0.46,0.34-0.97,0.79-1.1c0.24-0.07,0.5-0.02,0.72-0.12
		c0.33-0.14,0.47-0.53,0.57-0.88c0.29-1,0.57-2,0.86-3c0,0,1.07-8.04,1.03-8.4c0.8-4.82-2.64-9.66-1.68-14.82
		c0.53-2.09,1.49-4.07,2.82-5.76L397.36,308.72z"></path><path class="st3" d="M92.89,308.73c-1.65-1.12-3.45-2.46-3.76-4.43c-0.22-1.36,0.34-2.72,0.36-4.1c0.03-1.85-0.89-3.56-1.54-5.29
		c-0.93-2.52-1.3-5.26-0.94-7.92c0.17-1.31,0.51-2.59,0.78-3.88c0.36-1.76,0.58-3.54,0.83-5.42c0.46-3.89-1.02-7.79-0.74-11.7
		c0.04-0.62,0.14-1.26,0.44-1.81c0.31-0.55,0.87-0.99,1.49-1c0.6-0.01,1.13,0.35,1.62,0.7c1.76,1.26,3.53,2.53,5.52,3.82
		c2.53,1.25,5.43,1.72,8.22,1.35c1.38-0.19,2.72-0.57,4.11-0.72c2.93-0.32,5.87,0.45,8.79,1.69c2.63,0.82,5.34,1.41,8.07,1.74
		c1.32,0.16,2.67,0.26,3.98,0.04c3.84-0.66,6.79-4,10.63-4.7c1.08-0.2,2.19-0.17,3.29-0.21c2.91-0.11,5.81-0.68,8.54-1.68
		c0.78-0.29,1.88-0.51,2.28,0.22c0.17,0.3,0.13,0.67,0.1,1.02c-0.13,1.22-0.26,2.44-0.09,3.72c-0.28,1.56,0.07,3.23,0.96,4.55
		s2.3,2.27,3.86,2.59c1.68,0.35,3.64,0.06,4.95,1.17c0.62,0.52,1.01,1.31,1.71,1.71c0.34,0.2,0.72,0.29,1.06,0.47
		c1.24,0.66,1.59,2.25,1.8,3.64l-3.46,24.52L92.89,308.73z"></path><path class="st3" d="M188.63,308.69c1.25-1.8,2.41-3.69,3.16-5.75c0.75-2.06,1.08-4.32,0.65-6.47c-0.14-0.68-0.35-1.36-0.37-2.05
		c-0.02-0.7,0.2-1.44,0.76-1.86c0.23-0.17,0.51-0.28,0.71-0.49c0.34-0.35,0.38-0.9,0.29-1.38c-0.09-0.48-0.29-0.94-0.34-1.42
		c-0.23-2.07,2.11-3.72,2.31-5.86c6.1,0.44,12.28,0.88,18.3-0.2c6.22-1.12,12.03-3.81,18-5.88c5.97-2.07,12.44-3.52,18.59-2.05
		c10.42,2.49,17.67,12.76,29.32,14.97c11.77,2.02,23.91,1.8,35.6-0.65c7.74-1.62,15.48-4.23,23.35-3.5
		c5.4,0.5,10.51,2.54,15.63,4.29c14.69,5.02,30.91,7.76,45.67,2.95c3.28-1.07,6.5-2.51,9.94-2.74c4.09-0.28,8.28,1.27,11.2,4.15
		c2.91,2.87,4.58,6.92,7.9,9.3c1.69,1.21,4.07,2.86,3.15,4.73h-34.04c0,0-1.01,1.91-1.27,2.15c-5.39,6.25-16.16,4.3-22.33,9.78
		c-1.6,1.42-2.84,3.32-4.76,4.27c-2.51,1.24-5.52,0.57-8.26,1.16c-2.2,0.47-4.12,1.74-6.12,2.76c-4.07,2.08-8.69,3.18-13.25,2.79
		c-4.56-0.39-9.03-2.35-12.14-5.7c-1.45-1.56-2.58-3.37-3.84-5.08c-3.85-5.21-8.99-9.47-14.83-12.28h-55.08c0,0-1.66,3.7-2.05,4.27
		c-5.02,11.23-15.7,19.76-27.77,22.17c-2.07,0.41-4.18,0.66-6.17,1.35c-3.05,1.05-5.65,3.07-8.19,5.05c0,0-2.66,1.8-2.96,1.91
		c-5.82,4.16-12.55,7.88-19.68,7.36c-3.61-0.26-7.14-1.65-9.96-3.92c-2.24-1.8-4.23-4.22-7.05-4.73c0,0-24.88-0.38-25.4-0.46
		c-1.21,1.58-2.93,2.77-4.84,3.34c-0.75,0.23-1.57,0.36-2.31,0.09c-0.74-0.26-1.35-1.02-1.21-1.79c0.21-1.21,1.79-1.49,3.01-1.5
		c1.04-0.01,2.08-0.01,3.12-0.02c0.32,0,0.68-0.02,0.9-0.25c0.23-0.24,0.22-0.62,0.2-0.96c-0.16-2.55,0.1-5.13,0.78-7.59
		c0.48-1.75,1.17-3.53,0.91-5.33c-0.21-1.41-0.97-2.65-1.6-3.93c-2.3-4.66-2.71-10.6,0.3-14.84L188.63,308.69z"></path><path class="st1" d="M165.68,308.51c-0.55-2.17-1.3-4.3-2.24-6.33c-0.67-1.46-1.68-3.05-3.28-3.25c-1.45-0.18-2.96,0.88-4.32,0.34
		c-0.2-0.08-0.39-0.2-0.5-0.38c-0.1-0.17-0.12-0.37-0.13-0.56c-0.06-0.78-0.08-1.56-0.06-2.35c0.02-0.87,0.09-1.74,0.36-2.56
		c0.36-1.07,1.06-2,1.83-2.83c2.98-3.19,7.11-5.07,11.74-6.39c5.82-1.27,11.9-1.26,17.72,0.01c-0.61,1.51-0.13,3.22,0.45,4.74
		c0.19,0.5,0.4,1.01,0.41,1.55c0.04,1.61-1.55,2.74-2.22,4.21c-0.57,1.25-0.45,2.69-0.45,4.06c0.01,2.66-0.5,5.46-2.24,7.47
		c-0.79,0.92-1.83,1.66-2.33,2.76L165.68,308.51z"></path><path class="st4" d="M155.82,294.45c-2.95-0.58-5.95-1.38-8.35-3.19c-2.64-2-4.3-5.05-6.8-7.23c-0.86-0.75-1.84-1.4-2.93-1.75
		c-2.27-0.72-4.72-0.07-7.02,0.54c-2.3,0.62-4.79,1.19-6.79,0.19c-0.56-0.6-1.14-1.23-1.33-2.02c-0.22-0.9,0.11-1.85,0.56-2.67
		c0.84-1.5,2.13-2.74,3.7-3.54c2.31-1.24,4.96-1.86,7.58-1.77c1.44,0.05,2.9,0.3,4.33,0.07c0.95-0.15,1.86-0.52,2.81-0.71
		c3.2-0.63,6.52,0.91,8.84,3.2c1.21,1.2,2.21,2.59,3.42,3.79s2.7,2.22,4.39,2.4c2.06,0.22,4.02-0.81,6.03-1.32
		c0.74-0.19,1.53-0.31,2.27-0.1c1.59,0.45,2.39,2.17,3,3.71c-1.99,0.7-3.95,1.48-5.88,2.35c-1.14,0.52-2.28,1.07-3.28,1.84
		C158.39,289.79,157.13,292.06,155.82,294.45z"></path><path class="st2" d="M123.92,282.46c1.29,4.85,3.86,9.35,7.38,12.93c0.33,0.34,0.68,0.67,0.9,1.09c0.6,1.14,0.13,2.55,0.35,3.83
		c0.44-0.85,1.01-1.64,1.68-2.33c2.3,2.8,5.32,5.01,8.69,6.36c1.23,0.49,2.7,0.85,3.81,0.14c0.91-0.57,1.3-1.67,1.65-2.72
		c0.1-0.12,0.21-0.23,0.37-0.32c0.45,0.84,1.31,1.45,2.25,1.61c-0.8,0.81-1.41,1.8-1.77,2.87c-0.09,0.28-0.17,0.57-0.13,0.87
		c0.04,0.29,0.24,0.58,0.53,0.64c0.19,0.04,0.39-0.01,0.58-0.07c0.7-0.21,1.39-0.42,2.09-0.63c0.03,0.36,0.43,0.6,0.79,0.58
		s0.68-0.24,0.96-0.47c1.18-0.95,2.09-2.22,2.61-3.64c0.21,0.73,0.48,1.44,0.8,2.13c0.16,0.34,0.35,0.68,0.67,0.87
		c0.33,0.19,0.77,0.15,1.07-0.08c0.3-0.23,0.44-0.65,0.43-1.15c0.13-0.26,0.25-0.51,0.38-0.77c0.43,1.27,2.02,1.64,3.35,1.81
		c0.29,0.04,0.6,0.07,0.87-0.04c0.4-0.17,0.61-0.63,0.62-1.06c0.01-0.43-0.15-0.85-0.31-1.25c-0.42-1.08-0.84-2.17-1.54-3.09
		c-0.7-0.92-1.71-1.66-2.86-1.76c-1.27-0.11-2.47,0.56-3.73,0.72c-0.16,0.02-0.33,0.03-0.47-0.03c-0.3-0.13-0.4-0.5-0.45-0.82
		c-0.29-1.78-0.3-3.61-0.02-5.46c-1.86-0.54-3.47-1.76-4.76-3.21s-2.31-3.11-3.32-4.88c0.38-2.75-1.13-5.67-3.6-6.95
		c-0.25-0.13-0.53-0.25-0.82-0.24c-0.49,0.01-0.91,0.41-1.1,0.87c-0.19,0.46-0.2,0.96-0.21,1.46c-0.43-0.55-1.16-0.77-1.86-0.85
		c-0.7-0.08-1.41-0.04-2.09-0.2c-0.48-0.11-0.94-0.33-1.29-0.67c-0.17-0.17-0.35-0.38-0.59-0.39c-0.15,0-0.29,0.08-0.42,0.15
		C132.14,280.27,128.42,281.55,123.92,282.46z"></path><path class="st4" d="M461.5,380.24h-423c-0.28,0-0.5-0.22-0.5-0.5v-38c0-0.28,0.22-0.5,0.5-0.5h423c0.28,0,0.5,0.22,0.5,0.5v38
		C462,380.01,461.78,380.24,461.5,380.24z M39,379.24h422v-37H39V379.24z"></path><path class="st4" d="M453.5,342.24h-404c-0.28,0-0.5-0.22-0.5-0.5v-24.05c0-5.21,4.24-9.45,9.45-9.45h386.11
		c5.21,0,9.45,4.24,9.45,9.45v24.05C454,342.01,453.78,342.24,453.5,342.24z M50,341.24h403v-23.55c0-4.66-3.79-8.45-8.45-8.45
		H58.45c-4.66,0-8.45,3.79-8.45,8.45V341.24z"></path><path class="st4" d="M196,342.24H38.5c-0.28,0-0.5-0.22-0.5-0.5V239.57c0-0.28,0.22-0.5,0.5-0.5H196c0.28,0,0.5,0.22,0.5,0.5v42.93
		c0,0.28-0.22,0.5-0.5,0.5s-0.5-0.22-0.5-0.5v-42.43H39v101.17h157c0.28,0,0.5,0.22,0.5,0.5S196.28,342.24,196,342.24z"></path><path class="st4" d="M44.38,341.9c-0.28,0-0.5-0.22-0.5-0.5V239.74c0-0.28,0.22-0.5,0.5-0.5s0.5,0.22,0.5,0.5V341.4
		C44.88,341.67,44.65,341.9,44.38,341.9z"></path><path class="st4" d="M288.35,379.85c-0.28,0-0.5-0.22-0.5-0.5v-37.1c0-0.28,0.22-0.5,0.5-0.5s0.5,0.22,0.5,0.5v37.1
		C288.85,379.63,288.63,379.85,288.35,379.85z"></path><path class="st4" d="M281.05,341.8c-0.28,0-0.5-0.22-0.5-0.5v-31.97c0-0.28,0.22-0.5,0.5-0.5s0.5,0.22,0.5,0.5v31.97
		C281.55,341.58,281.33,341.8,281.05,341.8z"></path><path class="st4" d="M61.13,419.74h-9.51c-0.26,0-0.47-0.2-0.5-0.45l-3.88-39.5c-0.01-0.14,0.03-0.28,0.13-0.38
		s0.23-0.16,0.37-0.16h17.25c0.14,0,0.28,0.06,0.37,0.16c0.1,0.1,0.14,0.24,0.13,0.38l-3.86,39.5
		C61.6,419.54,61.39,419.74,61.13,419.74z M52.07,418.74h8.6l3.76-38.5H48.29L52.07,418.74z"></path><path class="st4" d="M200.77,419.74h-9.51c-0.26,0-0.47-0.2-0.5-0.45l-3.88-39.5c-0.01-0.14,0.03-0.28,0.13-0.38
		s0.23-0.16,0.37-0.16h17.25c0.14,0,0.28,0.06,0.37,0.16c0.1,0.1,0.14,0.24,0.13,0.38l-3.86,39.5
		C201.24,419.54,201.02,419.74,200.77,419.74z M191.71,418.74h8.6l3.76-38.5h-16.15L191.71,418.74z"></path><path class="st4" d="M293.12,419.74h-9.51c-0.26,0-0.47-0.2-0.5-0.45l-3.88-39.5c-0.01-0.14,0.03-0.28,0.13-0.38
		s0.23-0.16,0.37-0.16h17.25c0.14,0,0.28,0.06,0.37,0.16s0.14,0.24,0.13,0.38l-3.86,39.5C293.59,419.54,293.37,419.74,293.12,419.74
		z M284.06,418.74h8.6l3.76-38.5h-16.15L284.06,418.74z"></path><path class="st4" d="M447.62,419.74h-9.51c-0.26,0-0.47-0.2-0.5-0.45l-3.88-39.5c-0.01-0.14,0.03-0.28,0.13-0.38
		s0.23-0.16,0.37-0.16h17.25c0.14,0,0.28,0.06,0.37,0.16s0.14,0.24,0.13,0.38l-3.86,39.5C448.09,419.54,447.87,419.74,447.62,419.74
		z M438.56,418.74h8.6l3.76-38.5h-16.15L438.56,418.74z"></path><path class="st4" d="M91.66,307.72c-0.08,0-0.17-0.02-0.25-0.06c-1.2-0.68-2.4-1.45-2.75-2.8c-0.2-0.77-0.05-1.51,0.09-2.24
		c0.05-0.23,0.09-0.46,0.12-0.69c0.25-1.75-0.3-3.55-0.84-5.3c-0.13-0.43-0.26-0.85-0.38-1.27c-0.93-3.32-1.23-6.88-0.85-10.31
		c0.15-1.33,0.4-2.66,0.63-3.95c0.43-2.33,0.88-4.75,0.72-7.12c-0.08-1.06-0.28-2.14-0.47-3.19c-0.33-1.77-0.67-3.6-0.44-5.44
		c0.16-1.35,0.92-2.73,2.25-2.77c0.84-0.01,1.54,0.54,1.99,0.92c2.38,1.96,5.2,4.11,8.43,4.72c2.06,0.39,4.13,0.15,6.32-0.1
		c1.52-0.17,3.1-0.36,4.66-0.31c2.8,0.09,5.5,0.92,8.12,1.71c2.42,0.74,4.92,1.5,7.45,1.65c3.55,0.21,7.1-0.79,10.01-2.81
		c0.18-0.12,0.36-0.25,0.53-0.38c0.75-0.54,1.53-1.11,2.46-1.4c1.12-0.35,2.27-0.24,3.39-0.14c0.64,0.06,1.24,0.12,1.84,0.09
		c1.36-0.05,2.72-0.54,4.04-1.01c1.73-0.62,3.52-1.25,5.41-0.99c0.35,0.05,0.85,0.16,1.14,0.58c0.32,0.44,0.24,0.97,0.19,1.29
		l-0.08,0.49c-0.26,1.67-0.52,3.4-0.3,5.06c0.27,1.98,1.27,3.57,2.67,4.25c0.85,0.42,1.91,0.54,2.93,0.66
		c1.62,0.19,3.3,0.38,4.37,1.73c0.17,0.22,0.14,0.53-0.08,0.7c-0.22,0.17-0.53,0.14-0.7-0.08c-0.81-1.02-2.21-1.18-3.7-1.35
		c-1.11-0.13-2.25-0.26-3.26-0.75c-1.71-0.83-2.91-2.71-3.23-5.02c-0.24-1.8,0.03-3.6,0.3-5.35l0.07-0.49
		c0.02-0.16,0.07-0.45-0.01-0.56c-0.04-0.05-0.15-0.13-0.47-0.17c-1.65-0.23-3.25,0.34-4.94,0.95c-1.39,0.49-2.83,1-4.33,1.07
		c-0.67,0.02-1.33-0.04-1.97-0.09c-1.06-0.1-2.06-0.19-3,0.1c-0.77,0.24-1.45,0.73-2.17,1.25c-0.18,0.13-0.37,0.26-0.55,0.39
		c-3.1,2.15-6.88,3.21-10.64,2.99c-2.64-0.16-5.2-0.94-7.68-1.7c-2.55-0.78-5.19-1.58-7.86-1.67c-1.48-0.05-3.02,0.13-4.51,0.3
		c-2.17,0.25-4.41,0.51-6.62,0.09c-3.47-0.65-6.4-2.88-8.88-4.93c-0.47-0.39-0.91-0.74-1.33-0.69c-0.78,0.03-1.2,1.15-1.29,1.89
		c-0.21,1.69,0.1,3.37,0.44,5.14c0.2,1.08,0.41,2.19,0.49,3.31c0.18,2.5-0.28,4.97-0.73,7.37c-0.24,1.27-0.48,2.58-0.62,3.88
		c-0.37,3.3-0.08,6.73,0.82,9.93c0.12,0.42,0.25,0.83,0.37,1.25c0.57,1.85,1.15,3.76,0.87,5.73c-0.04,0.25-0.08,0.5-0.13,0.74
		c-0.13,0.64-0.25,1.24-0.1,1.79c0.25,0.96,1.26,1.61,2.27,2.18c0.24,0.14,0.33,0.44,0.19,0.68C92,307.63,91.83,307.72,91.66,307.72
		z"></path><path class="st4" d="M103.95,305.84c-0.23,0-0.43-0.16-0.49-0.38c-0.62-2.64-2.03-5.14-3.96-7.04c-0.56-0.55-1.18-1.08-1.79-1.59
		c-1.57-1.33-3.19-2.71-3.98-4.68c-0.87-2.2-0.48-4.55-0.1-6.83c0.13-0.75,0.26-1.53,0.33-2.27c0.5-4.75-1.04-9.51-2.62-13.54
		c-0.1-0.26,0.03-0.55,0.28-0.65c0.26-0.1,0.55,0.03,0.65,0.28c1.62,4.14,3.2,9.04,2.68,14.01c-0.08,0.78-0.21,1.57-0.34,2.34
		c-0.38,2.24-0.73,4.36,0.04,6.3c0.69,1.74,2.15,2.98,3.69,4.29c0.62,0.52,1.26,1.07,1.84,1.64c2.06,2.03,3.56,4.7,4.23,7.52
		c0.06,0.27-0.1,0.54-0.37,0.6C104.03,305.84,103.99,305.84,103.95,305.84z"></path><path class="st4" d="M114.43,306.55c-0.23,0-0.44-0.16-0.49-0.39c-1.42-6.55-6.7-12.2-13.13-14.08c-0.27-0.08-0.42-0.36-0.34-0.62
		c0.08-0.27,0.35-0.41,0.62-0.34c6.77,1.97,12.33,7.93,13.83,14.83c0.06,0.27-0.11,0.54-0.38,0.59
		C114.5,306.55,114.46,306.55,114.43,306.55z"></path><path class="st4" d="M132.04,296.89c-0.14,0-0.28-0.06-0.38-0.17c-3.47-4.02-6.21-8.57-8.15-13.51c-0.1-0.26,0.03-0.55,0.28-0.65
		c0.26-0.1,0.55,0.03,0.65,0.28c1.9,4.84,4.58,9.29,7.97,13.22c0.18,0.21,0.16,0.52-0.05,0.71
		C132.28,296.85,132.16,296.89,132.04,296.89z"></path><path class="st4" d="M131.61,302.33c-0.07,0-0.14-0.02-0.21-0.05c-0.23-0.11-0.34-0.37-0.26-0.61c1.36-4.19,1.5-8.85,0.41-13.12
		c-0.07-0.27,0.09-0.54,0.36-0.61c0.27-0.07,0.54,0.09,0.61,0.36c0.89,3.45,0.99,7.15,0.34,10.67l3.56-5.53
		c0.15-0.23,0.46-0.3,0.69-0.15c0.23,0.15,0.3,0.46,0.15,0.69l-5.22,8.11C131.93,302.24,131.77,302.33,131.61,302.33z"></path><path class="st4" d="M145.44,305.18c-0.19,0-0.39-0.01-0.59-0.04c-1.01-0.13-1.92-0.56-2.69-0.96c-2.97-1.51-5.7-3.42-8.12-5.7
		c-0.2-0.19-0.21-0.51-0.02-0.71c0.19-0.2,0.5-0.21,0.71-0.02c2.36,2.21,5.01,4.07,7.89,5.54c0.7,0.35,1.51,0.74,2.37,0.86
		c0.85,0.11,1.63-0.08,2.13-0.53c0.6-0.53,0.84-1.43,1-2.25c0.57-2.91,0.53-5.98-0.13-8.87c-0.06-0.27,0.11-0.54,0.38-0.6
		c0.27-0.06,0.54,0.11,0.6,0.38c0.69,3.03,0.73,6.24,0.13,9.29c-0.19,0.97-0.5,2.07-1.32,2.8
		C147.18,304.89,146.35,305.18,145.44,305.18z"></path><path class="st4" d="M139.72,307.71c-0.26,0-0.48-0.2-0.5-0.46c-0.17-2.05-0.87-4.04-2.03-5.74c-0.16-0.23-0.1-0.54,0.13-0.69
		c0.23-0.16,0.54-0.1,0.69,0.13c1.25,1.84,2.02,4,2.2,6.22c0.02,0.28-0.18,0.52-0.46,0.54
		C139.74,307.71,139.73,307.71,139.72,307.71z"></path><path class="st4" d="M123.96,284.13c-0.16,0-0.31-0.08-0.41-0.21c-1.25-1.8-3.19-3.11-5.33-3.59c-0.27-0.06-0.44-0.33-0.38-0.6
		c0.06-0.27,0.33-0.43,0.6-0.38c2.38,0.53,4.54,1.99,5.94,4c0.16,0.23,0.1,0.54-0.13,0.7C124.16,284.11,124.06,284.13,123.96,284.13
		z"></path><path class="st4" d="M146.12,287.1c-0.17,0-0.33-0.08-0.43-0.24c-0.14-0.24-0.07-0.54,0.17-0.69c0.9-0.55,1.39-1.82,1.17-3.09
		c-0.23-1.36-1.13-2.56-1.79-3.34c-0.79-0.94-1.46-1.36-2.12-1.34c-0.38,0.02-0.76,0.26-1,0.65c-0.24,0.39-0.3,0.83-0.15,1.18
		c0.09,0.21,0.03,0.45-0.15,0.59c-0.18,0.14-0.42,0.15-0.6,0.02c-0.57-0.41-1.22-0.88-1.92-0.97c-0.23-0.03-0.46-0.02-0.7-0.01
		c-0.28,0.01-0.58,0.02-0.88-0.02c-0.77-0.1-1.47-0.54-1.93-1.16c-3.45,2.68-7.95,3.5-11.93,4.07c-0.27,0.03-0.53-0.15-0.56-0.42
		c-0.04-0.27,0.15-0.53,0.43-0.57c4.02-0.57,8.59-1.41,11.89-4.21c0.12-0.1,0.28-0.14,0.44-0.11c0.16,0.04,0.28,0.15,0.34,0.29
		c0.25,0.58,0.83,1.04,1.46,1.12c0.22,0.03,0.46,0.02,0.71,0.01c0.27-0.01,0.56-0.02,0.86,0.02c0.55,0.07,1.05,0.29,1.5,0.55
		c0.05-0.31,0.17-0.62,0.35-0.91c0.42-0.66,1.09-1.08,1.8-1.11c1.27-0.07,2.29,0.93,2.93,1.69c0.74,0.87,1.74,2.21,2.01,3.82
		c0.24,1.4-0.18,3.22-1.64,4.11C146.29,287.07,146.2,287.1,146.12,287.1z"></path><path class="st4" d="M155.25,293.79c-0.02,0-0.05,0-0.07,0c-1.52-0.22-3.03-1.16-4.35-2.72c-0.6-0.7-1.12-1.47-1.63-2.21
		c-0.4-0.59-0.81-1.19-1.26-1.75c-0.17-0.22-0.13-0.53,0.08-0.7c0.22-0.17,0.53-0.13,0.7,0.08c0.46,0.59,0.89,1.21,1.3,1.81
		c0.49,0.72,1,1.46,1.56,2.13c0.81,0.96,2.12,2.15,3.73,2.38c0.27,0.04,0.46,0.29,0.42,0.57
		C155.71,293.61,155.5,293.79,155.25,293.79z"></path><path class="st4" d="M126.35,288.03c-0.17,0-0.33-0.09-0.43-0.24c-0.14-0.24-0.07-0.54,0.17-0.69c0.95-0.58,2.09-0.81,3.19-0.66
		c0.27,0.04,0.46,0.29,0.43,0.56c-0.04,0.27-0.29,0.46-0.56,0.43c-0.87-0.12-1.79,0.07-2.54,0.52
		C126.53,288.01,126.44,288.03,126.35,288.03z"></path><path class="st4" d="M132.38,286.07c-0.12,0-0.23-0.04-0.33-0.12c-0.21-0.18-0.23-0.5-0.05-0.71c0.89-1.03,2.17-1.7,3.53-1.84
		c0.28-0.03,0.52,0.17,0.55,0.45c0.03,0.27-0.17,0.52-0.45,0.55c-1.1,0.12-2.15,0.66-2.87,1.5
		C132.66,286.02,132.52,286.07,132.38,286.07z"></path><path class="st4" d="M128.46,291.22c-0.27,0-0.49-0.21-0.5-0.48c-0.01-0.28,0.2-0.51,0.48-0.52c0.57-0.03,1.14-0.31,1.51-0.75
		c0.18-0.21,0.49-0.24,0.7-0.06c0.21,0.18,0.24,0.49,0.06,0.71c-0.55,0.65-1.38,1.06-2.23,1.1
		C128.47,291.22,128.47,291.22,128.46,291.22z"></path><path class="st4" d="M134.74,288.35c-0.26,0-0.48-0.2-0.5-0.47c-0.02-0.28,0.19-0.51,0.47-0.53c1.03-0.06,2.02-0.68,2.54-1.58
		c0.14-0.24,0.44-0.32,0.68-0.19c0.24,0.14,0.32,0.44,0.19,0.68c-0.69,1.2-1.97,1.99-3.34,2.08
		C134.76,288.35,134.75,288.35,134.74,288.35z"></path><path class="st4" d="M138.96,297.62c-0.17,0-0.33-0.08-0.43-0.24c-0.15-0.24-0.07-0.54,0.16-0.69l1.81-1.11
		c0.2-0.12,0.51-0.3,0.88-0.3c0.42,0.01,0.82,0.29,1.04,0.72c0.16,0.32,0.19,0.66,0.22,0.94c0.03,0.27-0.17,0.52-0.45,0.55
		c-0.28,0.03-0.52-0.17-0.55-0.45c-0.02-0.21-0.04-0.44-0.12-0.6c-0.06-0.11-0.14-0.16-0.18-0.17c-0.07,0-0.22,0.09-0.31,0.15
		l-1.81,1.11C139.14,297.59,139.05,297.62,138.96,297.62z"></path><path class="st4" d="M169.3,283.94c-0.21,0-0.41-0.14-0.48-0.35c-0.32-1.03-0.94-2.35-2.1-2.8c-0.71-0.27-1.63-0.21-2.72,0.2
		c-0.36,0.13-0.71,0.29-1.06,0.44c-0.61,0.27-1.24,0.54-1.92,0.72c-2.11,0.54-4.56,0.01-6.73-1.45c-1.94-1.3-3.42-3.1-4.78-4.84
		c-0.74-0.95-1.45-1.86-2.36-2.41c-1.03-0.62-2.43-0.83-4.16-0.64c-0.7,0.08-1.41,0.21-2.1,0.34c-0.8,0.15-1.63,0.31-2.46,0.38
		c-1.04,0.1-2.09,0.07-3.1,0.04c-0.61-0.02-1.23-0.03-1.84-0.02c-2.66,0.04-4.9,0.62-6.66,1.71c-2.08,1.28-3.44,3.31-3.64,5.42
		c-0.03,0.27-0.25,0.47-0.55,0.45c-0.27-0.03-0.48-0.27-0.45-0.55c0.23-2.42,1.77-4.73,4.11-6.18c1.92-1.18,4.33-1.81,7.17-1.86
		c0.63-0.01,1.26,0.01,1.88,0.02c0.98,0.03,2,0.05,2.98-0.04c0.79-0.07,1.59-0.22,2.37-0.37c0.71-0.13,1.44-0.27,2.17-0.35
		c1.95-0.22,3.56,0.04,4.78,0.78c1.08,0.64,1.84,1.63,2.58,2.57c1.36,1.75,2.79,3.49,4.6,4.7c1.94,1.3,4.1,1.78,5.93,1.31
		c0.6-0.15,1.17-0.4,1.77-0.66c0.37-0.16,0.74-0.32,1.11-0.46c1.33-0.49,2.48-0.56,3.43-0.19c1.21,0.47,2.15,1.66,2.7,3.44
		c0.08,0.26-0.07,0.54-0.33,0.62C169.4,283.94,169.35,283.94,169.3,283.94z"></path><path class="st4" d="M155.74,299.07c-0.23,0-0.43-0.16-0.49-0.39c-0.7-3,0.12-6.33,2.15-8.7c0.86-1,1.94-1.89,3.43-2.8
		c3.4-2.09,7.39-3.45,11.87-4.03c3.78-0.49,7.87-0.44,12.52,0.17c0.27,0.04,0.47,0.29,0.43,0.56c-0.04,0.27-0.28,0.47-0.56,0.43
		c-4.55-0.6-8.56-0.66-12.26-0.17c-4.34,0.57-8.2,1.88-11.48,3.89c-1.39,0.86-2.41,1.68-3.19,2.6c-1.83,2.13-2.57,5.12-1.94,7.82
		c0.06,0.27-0.1,0.54-0.37,0.6C155.82,299.07,155.78,299.07,155.74,299.07z"></path><path class="st4" d="M150.04,307.93c-0.6,0-1.27-0.37-1.4-1.03c-0.1-0.49,0.15-0.93,0.29-1.19c0.78-1.4,1.62-2.78,2.5-4.12
		c0.35-0.53,0.68-1,1.16-1.37c0.67-0.52,1.48-0.73,2.26-0.88c1.47-0.28,2.96-0.4,4.4-0.51c0.28-0.04,0.52,0.18,0.54,0.46
		c0.02,0.28-0.18,0.52-0.46,0.54c-1.42,0.11-2.88,0.22-4.29,0.49c-0.66,0.13-1.33,0.3-1.83,0.69c-0.36,0.28-0.64,0.68-0.94,1.13
		c-0.87,1.31-1.7,2.67-2.46,4.05c-0.08,0.14-0.21,0.38-0.18,0.51c0.02,0.12,0.24,0.24,0.44,0.22c0.3-0.02,0.62-0.21,0.93-0.39
		c0.24-0.14,0.54-0.06,0.69,0.17c0.14,0.24,0.07,0.54-0.17,0.69c-0.37,0.22-0.83,0.5-1.38,0.53
		C150.1,307.93,150.07,307.93,150.04,307.93z"></path><path class="st4" d="M153.05,307.71c-0.45,0-0.93-0.24-1.09-0.71c-0.1-0.28-0.05-0.56-0.02-0.75c0.18-1,0.36-2.04,0.8-3.03
		c0.52-1.14,1.32-2,2.28-2.4c0.25-0.11,0.55,0.01,0.66,0.27c0.11,0.25-0.01,0.55-0.27,0.66c-0.72,0.3-1.35,0.98-1.76,1.89
		c-0.39,0.87-0.56,1.84-0.73,2.79c-0.01,0.07-0.04,0.2-0.02,0.24c0.02,0.02,0.1,0.05,0.19,0.03c0.18-0.04,0.37-0.2,0.53-0.35
		c0.34-0.32,0.68-0.71,1.04-1.18c0.54-0.71,0.89-1.31,1.12-1.91l0.05-0.15c0.07-0.21,0.15-0.42,0.26-0.61
		c0.45-0.78,1.3-1.14,1.92-1.4c0.26-0.11,0.55,0.01,0.65,0.27c0.11,0.25-0.01,0.55-0.27,0.65c-0.64,0.27-1.19,0.52-1.45,0.97
		c-0.08,0.14-0.13,0.29-0.19,0.45l-0.06,0.16c-0.26,0.69-0.66,1.38-1.26,2.16c-0.39,0.51-0.77,0.94-1.15,1.3
		c-0.26,0.25-0.59,0.52-1.01,0.6C153.22,307.7,153.13,307.71,153.05,307.71z"></path><path class="st4" d="M158.78,306.85c-0.39,0-0.78-0.2-1.16-0.6c-0.91-0.96-1.39-2.33-1.28-3.65c0.02-0.28,0.26-0.47,0.54-0.46
		c0.28,0.02,0.48,0.26,0.46,0.54c-0.08,1.04,0.29,2.12,1.01,2.88c0.21,0.23,0.36,0.29,0.45,0.28c0.14-0.02,0.27-0.35,0.28-0.71
		c0.01-0.54-0.08-1.09-0.27-1.6c-0.08-0.2-0.01-0.43,0.16-0.57c0.17-0.14,0.41-0.15,0.59-0.03c0.33,0.22,0.57,0.52,0.79,0.78
		c0.07,0.09,0.14,0.17,0.21,0.25c1.05,1.2,2.89,1.64,4.37,1.03c0.25-0.1,0.55,0.02,0.65,0.27c0.1,0.26-0.02,0.55-0.27,0.65
		c-1.74,0.71-3.86,0.29-5.22-1c0,0.07,0,0.15,0,0.22c-0.02,0.92-0.46,1.58-1.13,1.68C158.89,306.85,158.84,306.85,158.78,306.85z"></path><path class="st4" d="M165.68,308.6c-0.25,0-0.47-0.19-0.5-0.44c-0.25-2.09-0.75-3.82-1.55-5.26c-0.89-1.62-2.21-2.97-3.83-3.93
		c-0.15-0.09-0.24-0.25-0.25-0.43l-0.01-1.1c0-0.25,0.17-0.46,0.42-0.5c1.62-0.28,3.27-0.26,4.86-0.24l0.56,0.01
		c6.08,0.05,12.22-0.41,18.16-0.86c0.28-0.02,0.52,0.19,0.54,0.46s-0.19,0.52-0.46,0.54c-5.96,0.45-12.13,0.91-18.25,0.86
		l-0.56-0.01c-1.41-0.02-2.86-0.04-4.26,0.16l0,0.38c1.66,1.04,3.03,2.47,3.96,4.16c0.86,1.56,1.4,3.4,1.66,5.62
		c0.03,0.27-0.16,0.52-0.44,0.55C165.72,308.6,165.7,308.6,165.68,308.6z"></path><path class="st4" d="M180.81,308.46c-0.17,0-0.33-0.08-0.43-0.24c-0.15-0.23-0.07-0.54,0.16-0.69c1.52-0.94,2.72-2.52,3.37-4.46
		c0.56-1.66,0.74-3.6,0.53-5.77l-0.01-0.14c-0.08-0.76-0.16-1.62,0.22-2.39c0.24-0.48,0.6-0.82,0.96-1.15
		c0.14-0.14,0.29-0.27,0.42-0.42c0.55-0.6,0.88-1.42,0.9-2.24c0.02-0.72-0.18-1.43-0.4-2.18c-0.09-0.31-0.17-0.61-0.25-0.92
		c-0.35-1.51-0.18-2.75,0.5-3.6c0.52-0.64,1.34-1.06,2.44-1.25c1.18-0.2,2.37-0.12,3.52-0.04c1.14,0.08,2.21,0.15,3.27-0.03
		c0.27-0.05,0.53,0.14,0.58,0.41c0.05,0.27-0.14,0.53-0.41,0.58c-1.18,0.2-2.36,0.12-3.51,0.04c-1.14-0.08-2.22-0.15-3.28,0.03
		c-0.85,0.15-1.46,0.45-1.83,0.89c-0.61,0.75-0.5,1.9-0.31,2.74c0.07,0.29,0.15,0.59,0.23,0.88c0.22,0.79,0.45,1.61,0.43,2.48
		c-0.03,1.06-0.45,2.11-1.17,2.89c-0.15,0.16-0.31,0.32-0.48,0.47c-0.3,0.28-0.59,0.55-0.75,0.86c-0.26,0.51-0.19,1.16-0.12,1.84
		l0.01,0.14c0.23,2.31,0.03,4.39-0.57,6.18c-0.73,2.15-2.07,3.92-3.79,4.99C180.99,308.43,180.9,308.46,180.81,308.46z"></path><path class="st4" d="M190.21,306.48c-0.12,0-0.24-0.04-0.34-0.13c-0.2-0.19-0.21-0.5-0.03-0.71c1.91-2.06,2.71-5.04,2.11-7.78
		c-0.06-0.27-0.13-0.54-0.2-0.8c-0.14-0.54-0.29-1.09-0.35-1.67c-0.11-1.11,0.2-2.1,0.85-2.7c0.13-0.12,0.27-0.23,0.41-0.33
		c0.2-0.15,0.38-0.28,0.47-0.44c0.18-0.31,0.03-0.78-0.12-1.27c-0.05-0.15-0.09-0.3-0.13-0.45c-0.41-1.57,0.15-3.33,1.41-4.37
		c0.21-0.18,0.53-0.15,0.7,0.07c0.18,0.21,0.15,0.53-0.07,0.7c-0.95,0.78-1.39,2.16-1.08,3.35c0.03,0.13,0.08,0.27,0.12,0.4
		c0.19,0.61,0.43,1.37,0.03,2.06c-0.19,0.34-0.49,0.56-0.74,0.75c-0.11,0.08-0.22,0.16-0.32,0.25c-0.59,0.56-0.58,1.5-0.54,1.88
		c0.05,0.5,0.18,0.99,0.32,1.51c0.08,0.28,0.15,0.56,0.22,0.85c0.68,3.05-0.23,6.38-2.35,8.68
		C190.48,306.43,190.34,306.48,190.21,306.48z"></path><path class="st4" d="M239.32,304.8c-0.48,0-0.97-0.04-1.45-0.12c-2.11-0.37-4.39-1.96-4.65-4.32c-0.09-0.82,0.07-1.62,0.22-2.39
		c0.05-0.22,0.09-0.45,0.13-0.67c0.34-1.99-0.11-4.5-1.92-5.33c-0.87-0.4-2.03-0.36-3.17,0.12c-1,0.42-1.91,1.1-2.79,1.76l-0.2,0.15
		c-5.67,4.24-11.84,7.8-18.35,10.57c-0.25,0.11-0.55-0.01-0.66-0.26s0.01-0.55,0.26-0.66c6.43-2.74,12.54-6.26,18.15-10.45l0.2-0.15
		c0.93-0.7,1.89-1.42,3-1.88c1.4-0.58,2.85-0.62,3.97-0.11c2.3,1.06,2.91,3.98,2.49,6.41c-0.04,0.23-0.09,0.46-0.13,0.7
		c-0.15,0.72-0.29,1.41-0.21,2.08c0.21,1.86,2.08,3.14,3.83,3.44c1.95,0.34,4.03-0.21,5.86-0.69c0.27-0.07,0.54,0.09,0.61,0.36
		c0.07,0.27-0.09,0.54-0.36,0.61C242.66,304.36,241,304.8,239.32,304.8z"></path><path class="st4" d="M278.17,296.85c-3.06,0-6.18-0.3-9.16-1.37c-4.58-1.65-7.94-4.99-8.98-8.93c-0.07-0.27,0.09-0.54,0.36-0.61
		c0.27-0.07,0.54,0.09,0.61,0.36c0.95,3.57,4.15,6.73,8.35,8.25c3.99,1.43,8.29,1.43,12.35,1.2c5.22-0.29,10.47-0.96,15.6-2
		c0.27-0.05,0.54,0.12,0.59,0.39c0.05,0.27-0.12,0.54-0.39,0.59c-5.17,1.05-10.47,1.73-15.74,2.02
		C280.57,296.81,279.38,296.85,278.17,296.85z"></path><path class="st4" d="M321.26,306.15c-0.24,0-0.46-0.18-0.49-0.43c-0.04-0.27,0.15-0.53,0.42-0.57c3.11-0.46,6.18-1.54,8.89-3.12
		c0.31-0.18,0.62-0.37,0.93-0.56c1.19-0.73,2.43-1.49,3.83-1.84c2.53-0.64,5.06,0.13,7.51,0.88c0.74,0.22,1.48,0.45,2.21,0.63
		c5,1.26,10.23,0.65,15.29,0.06c0.27-0.03,0.52,0.17,0.55,0.44c0.03,0.27-0.17,0.52-0.44,0.55c-4.9,0.57-10.46,1.22-15.65-0.08
		c-0.75-0.19-1.5-0.42-2.26-0.65c-2.42-0.74-4.71-1.43-6.98-0.86c-1.26,0.32-2.37,1-3.55,1.73c-0.32,0.19-0.63,0.39-0.95,0.57
		c-2.82,1.65-6.02,2.77-9.25,3.25C321.31,306.15,321.28,306.15,321.26,306.15z"></path><path class="st4" d="M226.14,335.97c-0.26,0-0.48-0.2-0.5-0.46c-0.02-0.28,0.19-0.52,0.46-0.54c3.97-0.28,7.67-2.03,10.46-3.52
		c4.55-2.44,8.01-5.02,10.58-7.89c3.02-3.37,5.14-7.47,7.2-11.43c0.13-0.24,0.43-0.34,0.67-0.21c0.25,0.13,0.34,0.43,0.21,0.67
		c-2.08,4.02-4.24,8.18-7.34,11.64c-2.65,2.96-6.2,5.61-10.85,8.1c-2.87,1.54-6.7,3.34-10.86,3.64
		C226.16,335.97,226.15,335.97,226.14,335.97z"></path><path class="st4" d="M236.78,341.43c-0.22,0-0.42-0.14-0.48-0.36c-0.08-0.26,0.08-0.54,0.34-0.62c5.58-1.62,10.12-3.71,13.88-6.38
		c4.45-3.16,7.77-7.17,9.59-11.58c0.36-0.86,0.67-1.77,0.97-2.64c0.36-1.04,0.73-2.12,1.18-3.16c1.03-2.33,2.36-4.01,3.97-4.99
		c0.23-0.14,0.54-0.07,0.69,0.17c0.14,0.24,0.07,0.54-0.17,0.69c-1.43,0.87-2.63,2.4-3.58,4.54c-0.44,1-0.8,2.06-1.15,3.08
		c-0.3,0.89-0.62,1.81-0.99,2.7c-1.89,4.58-5.33,8.74-9.94,12.01c-3.86,2.74-8.49,4.87-14.18,6.53
		C236.87,341.43,236.83,341.43,236.78,341.43z"></path><path class="st4" d="M191.91,351.36c-4.58,0-9.17-1.57-12.7-4.51c-0.36-0.3-0.71-0.62-1.07-0.93c-0.98-0.88-1.91-1.71-3.03-2.24
		c-0.25-0.12-0.36-0.42-0.24-0.67s0.42-0.35,0.67-0.24c1.25,0.59,2.27,1.51,3.27,2.4c0.34,0.31,0.69,0.62,1.04,0.91
		c4.96,4.13,12.1,5.4,18.19,3.24c2.73-0.97,5.24-2.59,7.66-4.15c1.17-0.75,2.38-1.53,3.61-2.24c0.24-0.14,0.55-0.05,0.68,0.18
		c0.14,0.24,0.05,0.54-0.18,0.68c-1.21,0.69-2.4,1.46-3.56,2.21c-2.47,1.59-5.03,3.24-7.87,4.25
		C196.29,351,194.1,351.36,191.91,351.36z"></path><path class="st4" d="M189.91,359.32c-5.18,0-9.9-1.46-13.36-4.2c-1.74-1.38-3.19-3.09-4.59-4.74c-0.48-0.57-0.97-1.14-1.46-1.69
		c-1.64-1.85-3.9-4.08-6.75-4.99c-0.26-0.08-0.41-0.37-0.33-0.63c0.08-0.26,0.37-0.41,0.63-0.33c3.08,0.98,5.46,3.33,7.19,5.27
		c0.5,0.56,0.99,1.14,1.48,1.71c1.37,1.61,2.79,3.28,4.45,4.6c4.19,3.32,10.36,4.66,16.93,3.66c3.85-0.58,7.46-1.82,10.7-3.67
		c1.78-1.02,3.49-2.25,5.14-3.44c1.99-1.44,4.06-2.92,6.29-4.07c3.44-1.77,7.22-2.71,10.87-3.62c0.27-0.06,0.54,0.1,0.61,0.36
		c0.07,0.27-0.1,0.54-0.36,0.61c-3.6,0.9-7.32,1.83-10.65,3.54c-2.17,1.12-4.2,2.58-6.17,3.99c-1.67,1.21-3.4,2.45-5.23,3.5
		c-3.35,1.92-7.07,3.19-11.05,3.79C192.79,359.21,191.33,359.32,189.91,359.32z"></path><path class="st4" d="M137.42,357.54c-0.07,0-0.15,0-0.22-0.01c-1.06-0.12-1.86-1.07-2.27-2.67c-0.99-3.89-0.72-7.91-0.45-11.79
		c0.02-0.27,0.25-0.49,0.53-0.46c0.28,0.02,0.48,0.26,0.46,0.53c-0.26,3.81-0.53,7.74,0.42,11.48c0.17,0.68,0.58,1.82,1.41,1.92
		c0.51,0.06,1.04-0.34,1.4-0.69c0.8-0.79,1.38-1.76,1.98-2.8c0.37-0.64,0.76-1.29,1.2-1.9c1.29-1.77,3.12-3.18,5.17-3.97
		c0.83-0.32,1.7-0.54,2.54-0.75c0.69-0.18,1.4-0.36,2.07-0.59c1.18-0.41,2.72-1.18,3.43-2.58c0.13-0.25,0.43-0.34,0.67-0.22
		c0.25,0.12,0.35,0.43,0.22,0.67c-0.68,1.34-2.06,2.4-3.99,3.07c-0.71,0.25-1.44,0.43-2.15,0.61c-0.81,0.21-1.65,0.42-2.42,0.72
		c-1.87,0.72-3.54,2.01-4.72,3.63c-0.42,0.57-0.79,1.21-1.15,1.82c-0.61,1.05-1.24,2.13-2.15,3.01
		C138.75,357.21,138.08,357.54,137.42,357.54z"></path><path class="st4" d="M140.67,346.22c-0.16,0-0.31-0.02-0.47-0.07c-0.6-0.18-1.08-0.74-1.25-1.45c-0.13-0.58-0.06-1.15,0-1.65
		c0.03-0.27,0.29-0.47,0.56-0.43c0.27,0.03,0.47,0.28,0.43,0.56c-0.05,0.44-0.11,0.9-0.02,1.3c0.07,0.3,0.27,0.63,0.56,0.72
		c0.32,0.09,0.74-0.09,1.16-0.31l2.27-1.16c0.24-0.13,0.55-0.03,0.67,0.22c0.12,0.25,0.03,0.55-0.22,0.67l-2.27,1.16
		C141.76,345.96,141.24,346.22,140.67,346.22z"></path><path class="st4" d="M137.35,340.23c-0.05,0-0.1-0.01-0.15-0.02c-0.26-0.08-0.41-0.36-0.33-0.63c1.52-4.83,1.93-10.04,1.2-15.05
		c-0.12-0.85-0.28-1.69-0.44-2.53c-0.29-1.58-0.6-3.22-0.68-4.88c-0.1-2.1,0.15-5.09,1.97-7.38c0.17-0.22,0.49-0.25,0.7-0.08
		c0.22,0.17,0.25,0.49,0.08,0.7c-1.62,2.04-1.85,4.78-1.75,6.71c0.08,1.58,0.38,3.19,0.66,4.74c0.16,0.85,0.32,1.71,0.44,2.57
		c0.75,5.16,0.33,10.52-1.24,15.49C137.76,340.09,137.57,340.23,137.35,340.23z"></path><path class="st4" d="M146.2,340.47c-0.22,0-0.43-0.15-0.48-0.38c-0.55-2.17,0.16-4.3,0.84-6.37c0.55-1.66,1.12-3.38,0.99-5.05
		c-0.12-1.5-0.77-2.87-1.46-4.32c-0.29-0.62-0.59-1.25-0.85-1.9c-1.47-3.7-1.48-7.94-0.03-11.65c0.1-0.26,0.39-0.38,0.65-0.28
		c0.26,0.1,0.38,0.39,0.28,0.65c-1.36,3.47-1.35,7.45,0.03,10.91c0.25,0.62,0.54,1.23,0.83,1.84c0.7,1.47,1.42,2.99,1.55,4.67
		c0.15,1.87-0.46,3.69-1.04,5.44c-0.67,2.02-1.3,3.92-0.82,5.81c0.07,0.27-0.09,0.54-0.36,0.61
		C146.28,340.47,146.24,340.47,146.2,340.47z"></path><path class="st4" d="M343.41,338.37c-3.43,0-6.86-0.44-10.17-1.34c-3.43-0.93-6.07-2.19-8.06-3.86c-2.16-1.81-3.7-4.2-5.19-6.52
		c-0.43-0.66-0.85-1.32-1.29-1.97c-3.82-5.63-8.94-10.45-14.78-13.93c-0.24-0.14-0.32-0.45-0.17-0.69c0.14-0.24,0.45-0.32,0.69-0.17
		c5.97,3.56,11.19,8.48,15.1,14.23c0.44,0.65,0.87,1.32,1.3,1.99c1.45,2.25,2.95,4.58,4.99,6.29c1.91,1.6,4.34,2.76,7.67,3.66
		c7.71,2.08,16.07,1.66,23.53-1.18c0.92-0.35,1.83-0.73,2.73-1.12c2.35-1,4.78-2.03,7.37-2.41c0.94-0.14,1.89-0.19,2.82-0.24
		c1.82-0.1,3.54-0.2,5.11-0.88c1.43-0.62,2.6-1.66,3.84-2.77c0.33-0.3,0.67-0.6,1-0.88c2.9-2.48,6.35-4.4,9.99-5.55
		c1.46-0.46,2.99-0.83,4.48-1.17c3.69-0.87,7.18-1.69,9.9-4c0.74-0.63,1.43-1.38,2.1-2.12c1.34-1.46,2.72-2.98,4.65-3.68
		c0.26-0.09,0.55,0.04,0.64,0.3c0.09,0.26-0.04,0.55-0.3,0.64c-1.7,0.62-2.94,1.98-4.26,3.42c-0.69,0.75-1.4,1.53-2.19,2.2
		c-2.91,2.47-6.68,3.36-10.32,4.22c-1.46,0.34-2.98,0.7-4.4,1.15c-3.51,1.12-6.84,2.97-9.64,5.36c-0.33,0.28-0.66,0.58-0.99,0.87
		c-1.24,1.11-2.53,2.26-4.11,2.94c-1.74,0.75-3.63,0.86-5.46,0.96c-0.91,0.05-1.84,0.1-2.73,0.24c-2.46,0.36-4.83,1.37-7.13,2.34
		c-0.92,0.39-1.84,0.78-2.77,1.13C352.93,337.52,348.17,338.37,343.41,338.37z"></path><path class="st4" d="M345.5,332.26c-5.11,0-10.23-1.67-14.14-4.91c-2.44-2.03-4.42-4.57-6.32-7.02c-0.63-0.81-1.26-1.62-1.9-2.42
		c-2.24-2.75-5.34-6.08-9.43-7.39c-0.26-0.08-0.41-0.37-0.32-0.63c0.08-0.26,0.36-0.41,0.63-0.32c4.34,1.39,7.57,4.85,9.9,7.71
		c0.65,0.8,1.28,1.62,1.92,2.43c1.87,2.41,3.81,4.91,6.17,6.87c6.47,5.37,16.46,6.23,23.76,2.05c0.44-0.25,0.87-0.52,1.3-0.79
		c1.36-0.84,2.77-1.72,4.39-2.08c2.17-0.48,4.38,0.01,6.33-0.5c1.87-0.5,3.33-1.82,4.87-3.22c0.74-0.67,1.5-1.36,2.31-1.96
		c3-2.2,6.68-3.09,10.24-3.94c0.53-0.13,1.06-0.26,1.59-0.39c3.81-0.95,8.03-2.37,10.49-5.64c0.17-0.22,0.48-0.27,0.7-0.1
		c0.22,0.17,0.27,0.48,0.1,0.7c-2.65,3.53-7.07,5.02-11.05,6.01c-0.53,0.13-1.06,0.26-1.6,0.39c-3.46,0.83-7.04,1.69-9.88,3.78
		c-0.77,0.56-1.51,1.24-2.23,1.89c-1.56,1.42-3.18,2.89-5.29,3.45c-2.17,0.58-4.39,0.07-6.37,0.51c-1.45,0.32-2.73,1.11-4.08,1.95
		c-0.44,0.28-0.88,0.55-1.33,0.81C353.01,331.35,349.26,332.26,345.5,332.26z"></path><path class="st1" d="M182.22,268.16c-0.29,0-0.58-0.13-0.77-0.37c-0.25-0.31-0.3-0.74-0.12-1.09l3.8-7.37l-4.5,1.64
		c-0.52,0.19-1.09-0.08-1.28-0.6c-0.19-0.52,0.08-1.09,0.6-1.28l6.9-2.52c0.39-0.14,0.82-0.03,1.09,0.28
		c0.27,0.31,0.33,0.75,0.14,1.12l-3.91,7.59l5.05-1.44c0.53-0.15,1.08,0.16,1.24,0.69c0.15,0.53-0.16,1.08-0.69,1.24l-7.27,2.08
		C182.4,268.14,182.31,268.16,182.22,268.16z"></path><path class="st1" d="M214.35,264.15c-0.07,0-0.14-0.01-0.22-0.02l-12.76-2.82c-0.35-0.08-0.62-0.33-0.73-0.67
		c-0.11-0.34-0.03-0.71,0.2-0.97l8.67-9.87l-9.31,0.18c-0.01,0-0.01,0-0.02,0c-0.54,0-0.99-0.44-1-0.98
		c-0.01-0.55,0.43-1.01,0.98-1.02l11.58-0.22c0.39,0.01,0.76,0.22,0.93,0.58c0.17,0.36,0.11,0.78-0.16,1.08l-9.05,10.31l11.11,2.46
		c0.54,0.12,0.88,0.65,0.76,1.19C215.22,263.83,214.81,264.15,214.35,264.15z"></path><path class="st1" d="M230.01,256.06c-0.3,0-0.58-0.13-0.77-0.37c-0.22-0.26-0.28-0.62-0.18-0.94l5.81-17.83l-10.68,5.96
		c-0.48,0.27-1.09,0.1-1.36-0.39c-0.27-0.48-0.1-1.09,0.39-1.36l12.91-7.2c0.36-0.2,0.8-0.16,1.12,0.1
		c0.32,0.26,0.44,0.69,0.31,1.08l-6.12,18.78l18.56-2.12c0.54-0.07,1.05,0.33,1.11,0.88c0.06,0.55-0.33,1.04-0.88,1.11l-20.11,2.3
		C230.08,256.06,230.04,256.06,230.01,256.06z"></path></g><g id="sky"><path class="st0" d="M317.21,80.98c12.09-2.76,25.62,2.71,32.43,13.08s6.46,24.93-0.79,34.99c-7.25,10.06-20.92,14.99-32.94,11.92
		s-21.63-13.93-23.27-26.23c-0.66-4.93-0.09-10.11,2.73-14.33c-0.33,7.3,0.99,14.81,4.77,21.06c3.78,6.25,10.23,11.07,17.49,11.91
		c2.1,0.24,4.22,0.16,6.31-0.12c3.36-0.46,6.66-1.44,9.66-3.03c8.33-4.42,13.79-13.77,13.55-23.2c-0.24-9.43-6.17-18.49-14.71-22.48
		C327.83,82.37,322.67,81.64,317.21,80.98z"></path><polygon class="st3" points="159.4,156.03 160.88,160.82 165.68,160.82 161.8,163.79 163.28,168.59 159.4,165.62 155.52,168.59 
		157,163.79 153.12,160.82 157.92,160.82 	"></polygon><polygon class="st3" points="197.4,189.03 198.88,193.82 203.68,193.82 199.8,196.79 201.28,201.59 197.4,198.62 193.52,201.59 
		195,196.79 191.12,193.82 195.92,193.82 	"></polygon><polygon class="st3" points="228.4,135.59 229.88,140.39 234.68,140.39 230.8,143.35 232.28,148.15 228.4,145.19 224.52,148.15 
		226,143.35 222.12,140.39 226.92,140.39 	"></polygon><polygon class="st3" points="267.9,170.59 269.38,175.39 274.18,175.39 270.3,178.35 271.78,183.15 267.9,180.19 264.02,183.15 
		265.5,178.35 261.62,175.39 266.42,175.39 	"></polygon><polygon class="st3" points="319.4,164.31 320.88,169.1 325.68,169.1 321.8,172.07 323.28,176.87 319.4,173.9 315.52,176.87 
		317,172.07 313.12,169.1 317.92,169.1 	"></polygon><polygon class="st3" points="358.4,197.31 359.88,202.1 364.68,202.1 360.8,205.07 362.28,209.87 358.4,206.9 354.52,209.87 
		356,205.07 352.12,202.1 356.92,202.1 	"></polygon><polygon class="st3" points="427.9,176.87 429.38,181.67 434.18,181.67 430.3,184.64 431.78,189.44 427.9,186.47 424.02,189.44 
		425.5,184.64 421.62,181.67 426.42,181.67 	"></polygon><polygon class="st3" points="388.9,143.46 390.38,148.26 395.18,148.26 391.3,151.23 392.78,156.03 388.9,153.06 385.02,156.03 
		386.5,151.23 382.62,148.26 387.42,148.26 	"></polygon></g></svg>