<svg transform="scale(1)" id="_0058_office_work_4" data-name="0058_office_work_4" xmlns="http://www.w3.org/2000/svg" xmlns:xlink="http://www.w3.org/1999/xlink" version="1.1" viewBox="0 0 500 500" class="show_show__wrapper__graphic__5Waiy "><title>React</title><defs><style>
      .cls-1 {
        fill: #101720;
      }

      .cls-1, .highlight_dark, .cls-2, .cls-3, .cls-4, .skin, .cls-5, .cls-6, .highlight_light {
        stroke-width: 0px;
      }

      .highlight_dark {
        fill: #008fb1;
      }

      .cls-7 {
        clip-path: url(#clippath);
      }

      .cls-2 {
        fill: #ff9c10;
      }

      .cls-3 {
        fill: #ff9c0f;
      }

      .cls-4 {
        fill: #008eb1;
      }

      .skin {
        fill: #ff7e6d;
      }

      .cls-8 {
        clip-path: url(#clippath-1);
      }

      .cls-9 {
        clip-path: url(#clippath-3);
      }

      .cls-10 {
        clip-path: url(#clippath-2);
      }

      .cls-11 {
        fill: none;
        stroke: #101720;
        stroke-linecap: round;
        stroke-linejoin: round;
        stroke-width: .6px;
      }

      .cls-12, .cls-6 {
        fill: #fffffe;
      }

      .cls-5 {
        fill: #5c2f00;
      }

      .highlight_light {
        fill: #8fdce8;
      }
    </style><clipPath id="clippath"><path class="skin" d="M107.8,297.1l19.1,32.5s-4.4,7.6-16,10.9c-11.6,3.3-19.1-3.1-19.1-3.1,0,0-6.4,8.2-11.8,8-5.4-.2-6-4.4-4.5-7.4,0,0-6.5,1.1-11.6-6-5.1-7.1-3.3-14.3,2.7-15.4,0,0-.5-9.8,6.5-9.8,0,0,4.4-7.3,12.3-4.9,0,0,4.4-3.6,9.3-4.7s13.1,0,13.1,0Z"></path></clipPath><clipPath id="clippath-1"><path class="skin" d="M326.1,288.8c11.5.3,24.2,1.3,30.6,4.8,6.5,3.5,9.3,11,9.2,13.4,0,2.4-2,2.2-2,2.2,0,0,2.8,4.4-.5,6.5,0,0,1.1,7.1-3.7,6.3,0,0,2.3,4.9-1.3,6.5-3.6,1.5-8.4-7.9-10.7-11.6-2.3-3.7-5.9-4.2-8.6-3.4s-5.8,1.5-5.8,1.5c0,0,.9,4.4,1.8,5.8.9,1.4,4.6,3.1,6.1,7.9,1.5,4.8-4.3,4.5-10.3,1.4-6-3-9.6-5.3-9.6-5.3l4.8-35.8Z"></path></clipPath><clipPath id="clippath-2"><path class="cls-6" d="M210.9,190.8s1.6-2.2,4.7-1.3c3,.8,3.1,2.9,3.1,2.9,0,0-1.7,2.3-4.4,1.5-2.7-.7-3.4-3.1-3.4-3.1Z"></path></clipPath><clipPath id="clippath-3"><path class="cls-6" d="M206.7,189.6s-.4-2.3-3.1-2.8c-2.6-.5-3.5,1.1-3.5,1.1,0,0,.4,2.4,2.8,2.8,2.4.5,3.7-1.1,3.7-1.1Z"></path></clipPath></defs><g id="background"><path class="cls-1" d="M188.1,140.7h-42.3c-.2,0-.3-.1-.3-.3s.1-.3.3-.3h42.3c.2,0,.3.1.3.3s-.1.3-.3.3Z"></path><path class="cls-1" d="M164.7,150.7c-.2,0-.3-.1-.3-.3v-9.8c0-.2.1-.3.3-.3s.3.1.3.3v9.8c0,.2-.1.3-.3.3Z"></path><path class="cls-1" d="M202.8,150.7h-49.6c-.2,0-.3-.1-.3-.3s.1-.3.3-.3h49.6c.2,0,.3.1.3.3s-.1.3-.3.3Z"></path><path class="cls-1" d="M175.5,140.7c-.2,0-.3-.1-.3-.3v-10.2c0-.2.1-.3.3-.3s.3.1.3.3v10.2c0,.2-.1.3-.3.3Z"></path><path class="cls-1" d="M186.1,161c-.2,0-.3-.1-.3-.3v-10.1c0-.2.1-.3.3-.3s.3.1.3.3v10.1c0,.2-.1.3-.3.3Z"></path></g><g id="paper"><g><polygon class="cls-3" points="130.3 357 167 357 189.6 318.8 132.5 318.8 120.6 320.5 130.3 357"></polygon><path class="cls-1" d="M167,357.3h-36.7c-.1,0-.3,0-.3-.2l-9.7-36.6c0,0,0-.2,0-.2s.1-.1.2-.1l11.9-1.7h57.2c.1,0,.2,0,.3.1s0,.2,0,.3l-22.7,38.3c0,0-.2.1-.3.1ZM130.5,356.7h36.3l22.3-37.7h-56.6l-11.5,1.6,9.5,36Z"></path></g><g><polygon class="cls-6" points="171 324.1 151.4 366.4 24.3 366.4 83.8 329.6 131.1 324.1 171 324.1"></polygon><path class="cls-1" d="M151.5,366.7H24.3c-.1,0-.3,0-.3-.2,0-.1,0-.3.1-.3l59.4-36.8s0,0,.1,0l47.4-5.4h40c.1,0,.2,0,.3.1,0,0,0,.2,0,.3l-19.6,42.3c0,.1-.2.2-.3.2ZM25.4,366.1h125.9l19.3-41.7h-39.5l-47.2,5.4-58.5,36.2Z"></path></g><path class="cls-1" d="M137.2,355.1h-58.2c-.2,0-.3-.1-.3-.3s.1-.3.3-.3h58.2c.2,0,.3.1.3.3s-.1.3-.3.3Z"></path><path class="cls-1" d="M147.3,346.4h-58.2c-.2,0-.3-.1-.3-.3s.1-.3.3-.3h58.2c.2,0,.3.1.3.3s-.1.3-.3.3Z"></path><path class="cls-1" d="M157.4,337.7h-33.1c-.2,0-.3-.1-.3-.3s.1-.3.3-.3h33.1c.2,0,.3.1.3.3s-.1.3-.3.3Z"></path></g><g id="window"><g><g><rect class="cls-3" x="271.5" y="128.2" width="144.3" height="112.5"></rect><path class="cls-1" d="M415.8,241h-144.3c-.2,0-.3-.1-.3-.3v-112.5c0-.2.1-.3.3-.3h144.3c.2,0,.3.1.3.3v112.5c0,.2-.1.3-.3.3ZM271.8,240.4h143.7v-111.9h-143.7v111.9Z"></path></g><rect class="highlight_dark" x="282.7" y="139.1" width="56.8" height="39.7"></rect><rect class="highlight_dark" x="347.8" y="139.1" width="56.8" height="39.7"></rect><rect class="highlight_dark" x="282.7" y="189.6" width="56.8" height="40.2"></rect><rect class="highlight_dark" x="347.8" y="189.6" width="56.8" height="40.2"></rect></g><g><g><rect class="cls-11" x="271.5" y="128.2" width="144.3" height="112.5"></rect><path class="cls-11" d="M415.8,241h-144.3c-.2,0-.3-.1-.3-.3v-112.5c0-.2.1-.3.3-.3h144.3c.2,0,.3.1.3.3v112.5c0,.2-.1.3-.3.3ZM271.8,240.4h143.7v-111.9h-143.7v111.9Z"></path></g><rect class="cls-11" x="282.7" y="139.1" width="56.8" height="39.7"></rect><rect class="cls-11" x="347.8" y="139.1" width="56.8" height="39.7"></rect><rect class="cls-11" x="282.7" y="189.6" width="56.8" height="40.2"></rect><rect class="cls-11" x="347.8" y="189.6" width="56.8" height="40.2"></rect></g></g><g id="lamp"><g><rect class="cls-1" x="118.2" y="207.2" width="4.8" height="105.6"></rect><path class="cls-1" d="M123,313.1h-4.8c-.2,0-.3-.1-.3-.3v-105.6c0-.2.1-.3.3-.3h4.8c.2,0,.3.1.3.3v105.6c0,.2-.1.3-.3.3ZM118.5,312.5h4.2v-105h-4.2v105Z"></path></g><g><g><polygon class="highlight_light" points="153.7 209.7 87.5 209.7 97.1 162.7 144.1 162.7 153.7 209.7"></polygon><path class="cls-1" d="M153.7,210h-66.2c0,0-.2,0-.2-.1s0-.2,0-.2l9.6-47c0-.1.2-.2.3-.2h47c.1,0,.3.1.3.2l9.6,47c0,0,0,.2,0,.2s-.1.1-.2.1ZM87.9,209.4h65.4l-9.4-46.4h-46.5l-9.4,46.4Z"></path></g><path class="highlight_dark" d="M138.8,162.9c-5.3.4-13.8,1-22.8,1.6-9,.6-14.4,8.5-16.3,15.1-1.3,4.8-.9,8.9,1,10.3,4,2.8,27.3,5.3,35.2,6.1-4.4.3-13.7.9-22.6,1.1-6.3.2-10.6,2.1-12.1,5.3-1,2.2-.6,4.7,1.2,7.1h-14.5l9.5-46.6h41.5Z"></path><g><polyline class="cls-1" points="113.9 196 90.8 193.7 90.3 196 134 196"></polyline><path class="cls-1" d="M113.9,196.3h-23.6c0,0-.2,0-.2-.1s0-.2,0-.2l.5-2.3c0-.2.2-.3.3-.2l23.1,2.3h20.1c.2,0,.3.1.3.3s-.1.3-.3.3h-20.1ZM90.7,195.7h17.1l-16.8-1.6-.3,1.6Z"></path></g></g></g><g id="laptop"><g><rect class="cls-4" x="363.5" y="341.1" width="84.6" height="12.3"></rect><path class="cls-1" d="M448,353.7h-84.6c-.2,0-.3-.1-.3-.3v-12.3c0-.2.1-.3.3-.3h84.6c.2,0,.3.1.3.3v12.3c0,.2-.1.3-.3.3ZM363.8,353.1h84v-11.7h-84v11.7Z"></path></g><g><polygon class="cls-3" points="322.5 338.3 363.5 353.4 363.5 341.1 322.5 326 322.5 338.3"></polygon><path class="cls-1" d="M363.5,353.7s0,0-.1,0l-41-15.1c-.1,0-.2-.2-.2-.3v-12.3c0,0,0-.2.1-.2,0,0,.2,0,.3,0l41,15.1c.1,0,.2.2.2.3v12.3c0,0,0,.2-.1.2,0,0-.1,0-.2,0ZM322.8,338.1l40.4,14.8v-11.7l-40.4-14.8v11.7Z"></path></g><g><polygon class="cls-1" points="407.1 326 448 341.1 363.5 341.1 322.5 326 407.1 326"></polygon><path class="cls-1" d="M448,341.4h-84.6s0,0-.1,0l-41-15.1c-.1,0-.2-.2-.2-.3,0-.1.1-.2.3-.2h84.6s0,0,.1,0l41,15.1c.1,0,.2.2.2.3,0,.1-.1.2-.3.2ZM363.5,340.8h82.8l-39.3-14.5h-82.8l39.3,14.5Z"></path></g><g><polygon class="cls-6" points="464.8 292.1 448 341.1 363.5 341.1 380.2 292.1 464.8 292.1"></polygon><path class="cls-1" d="M448,341.4h-84.6c0,0-.2,0-.2-.1,0,0,0-.2,0-.3l16.7-49c0-.1.2-.2.3-.2h84.6c0,0,.2,0,.2.1,0,0,0,.2,0,.3l-16.7,49c0,.1-.2.2-.3.2ZM363.9,340.8h83.9l16.5-48.4h-83.9l-16.5,48.4Z"></path></g></g><g id="character"><g><path class="cls-3" d="M229.3,204.6c17.8-3.5,59.2-4.3,65.6,24.2,6.3,28.5,7.1,65.3,7.1,65.3l-63.7,4-9-93.4Z"></path><path class="cls-1" d="M238.2,298.3c-.2,0-.3-.1-.3-.3l-9-93.4c0-.2,0-.3.2-.3,16.1-3.2,59.3-5.1,65.9,24.4,6.3,28.2,7.1,65,7.1,65.3,0,.2-.1.3-.3.3l-63.7,4h0ZM229.6,204.8l8.9,92.8,63.1-3.9c0-3.5-1.2-38.1-7.1-64.9-3.4-15.4-17.3-21.5-28.3-23.9-13-2.8-27.4-1.9-36.7-.1Z"></path></g><g><path class="cls-1" d="M252.5,220c14.4,4.4,24.8,20.6,32.5,33.4s15.7,18.6,15.7,18.6l1.2,15.7-22.3-1.1-17.4-27.8-9.7-38.7Z"></path><path class="cls-1" d="M301.9,287.9h0l-22.3-1.1c0,0-.2,0-.2-.1l-17.4-27.8s0,0,0,0l-9.7-38.7c0-.1,0-.2,0-.3,0,0,.2-.1.3,0,14.2,4.3,24.3,19.6,32.7,33.5,7.5,12.6,15.6,18.4,15.7,18.5,0,0,.1.1.1.2l1.2,15.7c0,0,0,.2,0,.2,0,0-.1,0-.2,0ZM279.8,286.2l21.8,1.1-1.2-15.2c-1-.8-8.6-6.7-15.7-18.6-8.2-13.7-18.1-28.6-31.8-33.1l9.6,38.2,17.3,27.7Z"></path></g><g><path class="cls-6" d="M326.1,288.8l-.7,5.5-4,30.3-49.2-14.6h-94.5l-50.8,19.5-17.3-29.5-1.8-3,49.9-20.4c9.8-34,23.2-51.3,45.7-61.5,22.5-10.1,50.1,1.6,59.3,11.7,9.2,10.2,27.6,47.9,27.6,47.9l35.8,14Z"></path><path class="cls-1" d="M126.8,329.9c-.1,0-.2,0-.3-.1l-19.1-32.5c0,0,0-.2,0-.2,0,0,0-.1.2-.2l49.8-20.3c9.7-33.4,23-51.3,45.8-61.5,23.1-10.4,50.7,1.9,59.7,11.8,8.9,9.8,26.5,45.6,27.6,47.9l35.7,13.9c.1,0,.2.2.2.3l-4.8,35.8c0,0,0,.2-.1.2,0,0-.2,0-.2,0l-49.1-14.6h-94.4l-50.8,19.5s0,0-.1,0ZM108.2,297.2l1.6,2.7,17.2,29.2,50.6-19.4s0,0,.1,0h94.5s0,0,0,0l48.8,14.5,4.7-35.3-35.6-13.9c0,0-.1,0-.2-.1-.2-.4-18.5-37.8-27.5-47.8-8.8-9.7-36.1-22-59-11.7-22.7,10.2-35.9,28-45.5,61.3,0,0,0,.2-.2.2l-49.6,20.3Z"></path></g><path class="highlight_light" d="M108.2,297.2l49.7-20.3h0c9.6-33.5,22.8-51.2,45.5-61.4,5.7-2.6,12-3.9,18.9-3.9,16.9,0,33.3,8,40.1,15.5,9.1,10,27.4,47.5,27.5,47.8h0c0,.1,35.7,14,35.7,14l-.6,4.9-33.2-15.3.5.8c2.2,3.9,2.8,6.1,2.6,6.3-.3.2-.6.3-1,.3-1.1,0-2.9-1-5.1-5.7l-.9-1.9c-4.2-8.9-14-29.7-24.8-43.5-11.6-14.9-30.2-21.8-42.5-21.9h-.1c-12.4,0-31.1,11.8-37.2,19.4-6.4,8-16.1,24.9-19.7,36.2-2.8,8.6-6,11.8-7.4,12.8l.7-1.8-47.3,20.2-1.5-2.5Z"></path><g><polygon class="cls-1" points="105.6 318.2 88.4 342.4 77.9 351.6 81.6 338.8 80 337.9 99.2 313.7 105.6 318.2"></polygon><path class="cls-1" d="M77.9,351.9c0,0-.1,0-.2,0-.1,0-.2-.2-.1-.3l3.6-12.6-1.3-.7c0,0-.1-.1-.2-.2,0,0,0-.2,0-.2l19.2-24.2c0-.1.3-.1.4,0l6.4,4.5c0,0,.1.1.1.2,0,0,0,.2,0,.2l-17.2,24.2-10.6,9.2c0,0-.1,0-.2,0ZM80.5,337.8l1.2.7c.1,0,.2.2.1.3l-3.4,11.8,9.7-8.5,17-23.9-6-4.2-18.8,23.7Z"></path></g><g><path class="skin" d="M107.8,297.1l19.1,32.5s-4.4,7.6-16,10.9c-11.6,3.3-19.1-3.1-19.1-3.1,0,0-6.4,8.2-11.8,8-5.4-.2-6-4.4-4.5-7.4,0,0-6.5,1.1-11.6-6-5.1-7.1-3.3-14.3,2.7-15.4,0,0-.5-9.8,6.5-9.8,0,0,4.4-7.3,12.3-4.9,0,0,4.4-3.6,9.3-4.7s13.1,0,13.1,0Z"></path><g class="cls-7"><path class="highlight_dark" d="M116.3,309c3,12.2,5.3,20-1,25.4-6.3,5.4-24.4-2.8-25.3-5.4-.9-2.6-3.8.1-2.1,3.6s11,10.3,12.9,11.2c1.9,1,32.6-7.9,32.6-7.9l-3.7-13.5-13.3-13.5Z"></path><path class="highlight_dark" d="M100.8,307.7s0-5.2-2.4-5.9c-2.5-.7-3.8,10.8-4.5,15.1,0,.3-.1.6-.2.9.1-1.4.2-2.8,0-4.2,0-.6-1-.6-1,0,.2,3.1-.1,6.2-1,9.2-.2.6.8.9,1,.3l3.7-.7.7-.4.8-6.9,3.6-4.4,5.8-6.3c-1.8-.9-6.6,3.2-6.6,3.2Z"></path><path class="highlight_dark" d="M73.5,340.4c2.3,3.4,5.5,2.4,8.2,1.7,2.7-.8,7.3-7.6,7.3-7.6l4,4.2-5.1,6.4-6.5,2.1-6.1-1.8-1.7-4.9Z"></path><path class="highlight_dark" d="M76.4,301.8c2.9.6,3.8,3.3,3.6,6.5s-.8,9-.4,14c.5,5-2.7,9.7-2.7,9.7l1.2,2s3.7-6.2,4.1-11-.9-10.6,0-14.2c.9-3.5,2.3-6.6,4.5-8.1,2.3-1.5-1.5-2.5-1.5-2.5l-8.8,3.4Z"></path><path class="highlight_dark" d="M67.8,308.9c1.8-.5,2.4,2.1,2.8,5.2s.4,5.7,1.9,9.9c1.5,4.2,2.7,8.9,2.7,9.9s-.2,1.9-.2,1.9l1.4.7,1.4-2-3.2-9.6s-1.8-7.9-2-11.7c-.2-3.8.5-8.1.5-8.1l-1.7-.9-3.4,4.7Z"></path><path class="highlight_dark" d="M60.9,320.2c1.6-.7,3.2.3,3.9,2.6.8,2.3,1.9,5.3,4.3,8.7,2.4,3.3,3.8,4.8,3.8,6.3s2.3.5,2.3.5l.8-1.1v-.8s-4.4-4-5.6-6.4-2.7-6.5-3.2-8.9c-.5-2.4-.9-6.8-.9-6.8l-2.6.5-2.9,5.4Z"></path><path class="highlight_dark" d="M93.2,309.4s0,0,0,0c0,0,0,0,0,0,0,0,0,0,0,0,0,0,0,0,0-.1,0,0,0-.1-.1-.1,0,0-.1,0-.2,0,0,0-.1,0-.2,0,0,0-.1,0-.2,0,0,0,0,0,0,0,0,0,0,0-.1,0,0,0-.2,0-.2.1,0,0,0,0,0,.1,0,0,0,.2,0,.3,0,0,0,0,0,0,0,0,0,.1,0,.1,0,0,0,0,0,0,0,0,0,0,0,0,0,0,0,0,0,0,0,0,0,0,0,0,0,0,0,0,0,0,0,0,0,0,0,0,0,0,0,0,0,0,0,0,0,0,0,.1,0,0,0,0,0,0,0,0,0,0,0,0,0,0,0,0,0,0,0,0,0,0,.1,0,0,0,0,0,0,0,0,0,0,0,.1,0h0s0,0,0,0c0,0,0,0,0,0,0,0,0,0,.1,0,0,0,0,0,0,0,0,0,0,0,0,0,0,0,0,0,.1,0,0,0,0,0,0,0,0,0,0,0,0,0,0,0,0,0,.1,0,0,0,0,0,0,0,0,0,0,0,0,0,0,0,0,0,0-.1,0,0,0,0,0,0,0,0,0,0,0,0,0,0,0,0,0,0,0,0,0,0,0,0,0,0,0,0,0,0,0,0,0,0,0,0Z"></path><path class="highlight_dark" d="M88,302.5c0-.2-.3-.4-.6-.3-.7.2-1.2.7-1.6,1.3,0,.1,0,.3,0,.4,0,.1.1.2.2.3.2.1.6,0,.7-.2,0,0,0-.2.1-.2,0-.1.2-.2.3-.3.1,0,.3-.2.4-.2,0,0,0,0,0,0,.1,0,.2-.1.3-.2,0-.1,0-.3,0-.4Z"></path><path class="highlight_dark" d="M119.5,328.5c-.3,0-.5,0-.6.3-.7,1.7-2.2,3.1-3.9,3.8-.3,0-.4.3-.3.6,0,.2.4.4.6.3,2.1-.8,3.7-2.4,4.6-4.5.1-.2-.1-.6-.3-.6Z"></path><path class="highlight_dark" d="M116.9,326.8c0,0,0-.1-.1-.2,0,0,0,0-.1,0,0,0-.2,0-.3,0,0,0,0,0-.1,0,0,0-.2,0-.2.1-.1.1-.2.3-.4.4,0,0,0,0-.1.2,0,0,0,.1,0,.2,0,0,0,.1,0,.2,0,0,0,.1.1.2,0,0,0,0,.1,0,0,0,.2,0,.3,0,0,0,0,0,.1,0,0,0,.2,0,.2-.1.1-.1.2-.3.4-.4,0,0,0,0,.1-.2,0,0,0-.1,0-.2,0,0,0-.1,0-.2Z"></path></g></g><path class="cls-1" d="M80.2,345.7c0,0-.1,0-.2,0-2.9,0-4.2-1.3-4.9-2.3-.8-1.4-.9-3.2-.1-5.1-1.7,0-7.1-.2-11.4-6.2-2.9-4-3.8-8.3-2.4-11.6.9-2.2,2.7-3.7,5.1-4.2,0-1.1,0-5.5,2.5-8.1,1.1-1.2,2.5-1.8,4.2-1.8.7-1,5.1-7,12.4-4.9.8-.6,4.7-3.7,9.3-4.7,4.9-1.1,12.8,0,13.2,0,0,0,.2,0,.2.1l19.1,32.5c0,0,0,.2,0,.3,0,0-4.6,7.8-16.2,11-10.5,2.9-17.7-1.9-19.1-3-1.1,1.4-6.6,7.9-11.7,7.9ZM75.4,337.6c0,0,.2,0,.2.1,0,0,0,.2,0,.3-.8,1.8-.9,3.7,0,5,.8,1.2,2.3,1.9,4.4,2,5.2.2,11.5-7.8,11.6-7.9,0,0,.1-.1.2-.1,0,0,.2,0,.2,0,0,0,7.5,6.2,18.8,3,10.5-2.9,15-9.5,15.7-10.6l-18.9-32.2c-1.1-.1-8.4-1-12.8,0-4.8,1.1-9.1,4.6-9.1,4.7,0,0-.2,0-.3,0-7.7-2.3-11.8,4.5-12,4.8,0,0-.2.1-.3.1-1.6,0-2.9.5-4,1.6-2.5,2.7-2.3,7.8-2.3,7.9,0,.2,0,.3-.2.3-2.3.4-4,1.8-4.9,3.9-1.3,3.1-.4,7.3,2.3,11.1,4.9,6.8,11.3,5.9,11.3,5.9,0,0,0,0,0,0Z"></path><path class="cls-1" d="M91.8,337.7c0,0-.1,0-.2,0-3.2-2.5-4.9-5.6-4.7-8.5.1-2.2,1.3-4,3.3-5.2,4.6-2.7,14-1.5,14.4-1.5.2,0,.3.2.3.3,0,.2-.2.3-.3.3,0,0-9.6-1.2-14,1.4-1.8,1.1-2.9,2.8-3,4.7-.2,2.7,1.5,5.6,4.5,8,.1.1.2.3,0,.4,0,0-.1.1-.2.1Z"></path><path class="cls-1" d="M97.1,322.7s0,0,0,0c-.2,0-.3-.2-.3-.3,0,0,1.4-9.5,1.3-14,0-.2.1-.3.3-.3.2,0,.3.1.3.3.2,4.5-1.3,14-1.3,14.1,0,.1-.2.3-.3.3Z"></path><path class="cls-1" d="M75.4,338.2c0,0-.1,0-.2,0-.1-.1-.1-.3,0-.4,0,0,6.7-8.4,6.7-15.4s0-2.9-.1-4.4c-.3-6.3-.5-12.8,3.5-16.4.1-.1.3,0,.4,0,.1.1,0,.3,0,.4-3.8,3.4-3.6,9.8-3.3,15.9,0,1.5.1,3,.1,4.4,0,7.2-6.5,15.4-6.8,15.7,0,0-.1.1-.2.1Z"></path><path class="cls-1" d="M77.9,334.7c-.1,0-.2,0-.3-.2-2.7-5.9-7-20.2-4.8-27.9,0-.2.2-.3.4-.2.2,0,.3.2.2.4-2.1,7.6,2.1,21.7,4.8,27.5,0,.2,0,.3-.1.4,0,0,0,0-.1,0Z"></path><path class="cls-1" d="M76.4,337c0,0-.1,0-.1,0,0,0-8.8-5.1-10-20.4,0-.2.1-.3.3-.3.2,0,.3.1.3.3,1.2,15,9.6,19.9,9.7,20,.1,0,.2.3.1.4,0,0-.2.2-.3.2Z"></path><g><polygon class="cls-3" points="97.9 315.3 126.8 276.7 133.4 281.2 102.4 322.5 97.9 322.4 97.2 322.4 97.9 315.3"></polygon><path class="cls-1" d="M102.4,322.8h-4.5c0,0-.7,0-.7,0-.1,0-.2,0-.2,0,0,0,0-.2,0-.2l.8-7.1c0,0,0-.1,0-.1l28.9-38.7c0-.1.3-.2.4,0l6.6,4.5c0,0,.1.1.1.2,0,0,0,.2,0,.2l-31,41.2c0,0-.1.1-.2.1ZM97.9,322.1h4.4c0,0,30.7-40.8,30.7-40.8l-6.1-4.2-28.7,38.4-.7,6.7h.4Z"></path></g><g><path class="skin" d="M326.1,288.8c11.5.3,24.2,1.3,30.6,4.8,6.5,3.5,9.3,11,9.2,13.4,0,2.4-2,2.2-2,2.2,0,0,2.8,4.4-.5,6.5,0,0,1.1,7.1-3.7,6.3,0,0,2.3,4.9-1.3,6.5-3.6,1.5-8.4-7.9-10.7-11.6-2.3-3.7-5.9-4.2-8.6-3.4s-5.8,1.5-5.8,1.5c0,0,.9,4.4,1.8,5.8.9,1.4,4.6,3.1,6.1,7.9,1.5,4.8-4.3,4.5-10.3,1.4-6-3-9.6-5.3-9.6-5.3l4.8-35.8Z"></path><g class="cls-8"><path class="highlight_dark" d="M325.9,290.3s-1.5,27.2.7,32.1c2.2,4.8,9.5,6.2,11.7,5.4,2.3-.8,2.6-4.1,2.6-4.1l2.1,8.5-2.6,3.3-14.3-3.9-9.8-7.8,9.6-33.6"></path><path class="highlight_dark" d="M338,313.6c3.1-1.5,7.6-2.3,10.6,0,3,2.4,4.3,8.3,7.1,11.1,2.8,2.8,5.4.2,5.4.2l.2,3.6-2.8,1.8-4.9-1.4-5.5-6.4-10-8.9"></path><path class="highlight_dark" d="M364.4,317.3c-.9,1.9-2.9,2.9-5.1,0-2.2-3-2.9-6-6.1-8.1-3.2-2.1-4.1.7-4.1.7,0,0,0,.2,1.9.9s4,2.6,5.8,5.6c1.8,3,5.2,8.4,5.2,8.4l2.6-3.3v-4.1Z"></path><path class="highlight_dark" d="M364.9,310.1c-.2,1.7-1.1,2.2-2.6.6-1.5-1.7-3.2-5.5-5.9-7.6-2.7-2.1-4.5-1.7-5.2-1.2s1.6,1.3,1.6,1.3c0,0,2.9,1,5.4,4.4,2.5,3.4,6.4,9.5,6.4,9.5l1.7-2.9v-3.7c-.1,0-1.4-.3-1.4-.3Z"></path><path class="highlight_dark" d="M365,302c.2,2.5-.8,3.9-2.2,2.4-1.4-1.5-3.2-5.7-5.9-7.1s-3.9-.7-4-.1,1.9.9,1.9.9c0,0,2.7,1.4,5.1,4.9s6.1,8.9,6.1,8.9l1.8-3.6-.4-4.8-2.4-1.5Z"></path></g></g><path class="cls-1" d="M338.4,332.5c-2,0-4.7-.8-7.6-2.3-5.9-3-9.6-5.3-9.6-5.4,0,0-.2-.2-.1-.3l4.8-35.8c0-.2.2-.3.3-.3,9.9.3,23.9,1.1,30.8,4.9,6.7,3.7,9.5,11.4,9.4,13.7,0,.9-.3,1.5-.8,2-.3.3-.7.4-1,.5.6,1.2,2,4.5-.6,6.3.1.8.4,4.1-1.2,5.7-.6.6-1.4.9-2.4.8.3.9.9,2.8.3,4.4-.3.9-1,1.5-1.9,1.9-3.4,1.4-7.4-5.4-10.1-10-.4-.6-.7-1.2-1-1.7-2.7-4.4-7-3.6-8.3-3.3-2.2.6-4.7,1.2-5.5,1.5.2,1,.9,4.2,1.7,5.4.3.4.8.8,1.4,1.3,1.5,1.3,3.7,3.1,4.8,6.6.6,1.9,0,2.8-.5,3.3-.6.5-1.5.7-2.6.7ZM321.7,324.5c.8.5,4.2,2.6,9.4,5.2,4.2,2.1,8.1,2.8,9.5,1.6.6-.5.7-1.4.3-2.7-1-3.3-3.1-5-4.6-6.3-.6-.6-1.2-1-1.5-1.5-1-1.5-1.8-5.7-1.8-5.9,0-.2,0-.3.2-.3,0,0,3.1-.8,5.8-1.5,1.4-.4,6-1.2,9,3.5.3.5.6,1.1,1,1.7,2.4,4.1,6.4,11,9.3,9.7.8-.3,1.3-.9,1.6-1.6.7-1.9-.4-4.4-.4-4.5,0-.1,0-.2,0-.3,0,0,.2-.1.3-.1,1,.2,1.8,0,2.4-.6,1.6-1.5,1-5.3,1-5.4,0-.1,0-.2.1-.3,2.9-1.9.5-5.9.4-6,0,0,0-.2,0-.3s.2-.2.3-.1c0,0,.6,0,1.1-.4.4-.3.6-.8.6-1.5,0-2.4-2.9-9.7-9.1-13.1-6.7-3.7-20.4-4.5-30.2-4.8l-4.7,35.4Z"></path><path class="cls-1" d="M359.8,322.2c-.1,0-.2,0-.3-.2-3.6-7.2-6.9-10.9-9.8-11.3-.2,0-.3-.2-.3-.3,0-.2.2-.3.3-.3,3.2.3,6.6,4.1,10.3,11.6,0,.1,0,.3-.1.4s0,0-.1,0Z"></path><path class="cls-1" d="M363.5,315.9c-.1,0-.2,0-.3-.2,0-.1-7-12.9-11.6-12.4-.2,0-.3,0-.3-.3,0-.2,0-.3.3-.3,5-.6,11.9,12.1,12.2,12.7,0,.1,0,.3-.1.4,0,0,0,0-.1,0Z"></path><path class="cls-1" d="M364,309.5c-.1,0-.2,0-.3-.1-1.8-3.1-7.1-11.1-10-11.1s-.1,0-.2,0c-.2,0-.3,0-.3-.3,0-.2,0-.3.3-.3,0,0,.2,0,.2,0,3.8,0,10.2,10.9,10.5,11.4,0,.1,0,.3-.1.4,0,0,0,0-.2,0Z"></path><path class="cls-1" d="M155.1,283.8s0,0-.1,0c-.2,0-.2-.2-.2-.4l2.6-6.8c0-.2.2-.2.4-.2.2,0,.2.2.2.4l-2.6,6.8c0,.1-.2.2-.3.2Z"></path><path class="cls-1" d="M294.3,282.4c-.1,0-.2,0-.3-.2l-4-7.3c0-.1,0-.3.1-.4s.3,0,.4.1l4,7.3c0,.1,0,.3-.1.4,0,0,0,0-.1,0Z"></path><g><g><path class="cls-2" d="M198.5,182.9l12.4,19,5,7.6c1.2,3.5,3.9,6.2,7.2,7.9,3.2,1.7,6.9,2.4,10.5,2.5,3,.1,6,0,8.8-1.1,2.8-1,5.4-2.8,6.9-5.3,1.3-2.1,1.8-4.7,1.8-7.2,0-1.8-.4-3.7-1.1-5.4-1.5-4-4.6-7.4-8.5-9.1-.7-3.8-2.1-7.5-4.7-10.4-2.3-2.6-5.6-4.5-9-4.9-.4-3.1-2.2-6-4.5-8.1-2.5-2.2-5.5-3.7-8.6-5-1-.4-1.9-.8-3-.8-1.2,0-2.3.2-3.5.5-1.4.4-2.9.9-4.1,1.6-3,1.7-5.1,4.7-6,8-.9,3.3-.6,6.9.4,10.1Z"></path><path class="cls-1" d="M198.2,183c2.6,4,5.3,8.1,7.9,12.1,2.2,3.4,4.5,6.8,6.7,10.3l2.4,3.6c.2.3.4.6.5.9.4,1.2,1,2.2,1.8,3.2,3.4,4.5,8.9,6.4,14.3,6.9s11.6,0,15.8-4c4.2-3.9,4.6-10.4,2.5-15.5s-2.3-4.3-4.1-6-1.9-1.6-3-2.2-1.2-.4-1.4-1-.3-1.4-.5-2.2c-1.4-5.1-4.7-9.9-9.7-12-1.2-.5-2.4-.8-3.7-1l.3.3c-.9-7.1-7.4-11.1-13.5-13.5-1.8-.7-3.4-.9-5.2-.5s-3.6,1-5.2,1.8c-2.7,1.4-4.7,3.9-5.8,6.6-1.5,3.8-1.3,8.1-.1,11.9s.7.2.6-.2c-1-3.3-1.3-7-.3-10.3.8-2.8,2.5-5.3,4.9-7,1.4-.9,2.9-1.5,4.5-1.9s3.5-.9,5.3-.3,3.2,1.2,4.6,2,2.9,1.6,4.1,2.6c2.8,2.2,5,5.2,5.4,8.8s.1.3.3.3c5.6.6,9.9,4.9,11.9,9.9.5,1.3,1,2.6,1.3,4s0,1.1.4,1.4.6.3.9.4.6.3.8.5c2.2,1.3,4,3.1,5.3,5.3,2.9,4.7,3.6,11.3.2,15.9s-9.7,5.7-15.2,5.4-11.4-1.9-15-6.3c-.8-1-1.5-2.1-2-3.3s-.3-.7-.5-1l-2.2-3.3c-2.1-3.2-4.2-6.4-6.2-9.6s-5.7-8.7-8.5-13l-.2-.3c-.2-.3-.7,0-.5.3Z"></path></g><g><path class="cls-1" d="M210.9,201.9l5,7.6c1.2,3.5,3.9,6.2,7.2,7.9,3.2,1.7,6.9,2.4,10.5,2.5,3,.1,6,0,8.8-1.1,2.8-1,5.4-2.8,6.9-5.3,1.3-2.1,1.8-4.7,1.8-7.2,0-1.8-.4-3.7-1.1-5.4h0s-5.1,8-11.2,8.6c-6.1.6-13.1-7.6-15.1-14.8l-1.2-1.9-8.2,2.3-3.4,6.8Z"></path><path class="cls-1" d="M235,220.2c-.5,0-1,0-1.5,0-4.2-.2-7.7-1-10.7-2.5-3.5-1.8-6.2-4.8-7.3-8l-5-7.7,3.6-7,8.5-2.4,1.3,2.2c2.1,7.2,9,15.2,14.8,14.6,5.9-.6,11-8.4,11-8.5l.2-.4.2.4c.7,1.8,1.1,3.7,1.1,5.5,0,2.8-.6,5.3-1.8,7.4-1.5,2.4-4,4.3-7.1,5.4-2.1.7-4.6,1.1-7.4,1.1ZM211.2,201.9l4.9,7.6c1.1,3.2,3.6,6,7,7.7,2.9,1.5,6.3,2.3,10.4,2.5,3.4.1,6.2-.2,8.7-1,3-1,5.4-2.9,6.8-5.2,1.2-1.9,1.8-4.4,1.7-7,0-1.6-.3-3.2-.9-4.8-1.2,1.8-5.8,7.7-11.1,8.3-5.1.5-12.8-5.8-15.4-15l-1.1-1.7-7.8,2.2-3.3,6.5Z"></path></g><path class="cls-5" d="M225.6,196.6c-.4-.4-.6-.6-.6-.7l.2-.2s.2.3.6.6l-.2.2Z"></path><path class="skin" d="M218,225.4c-2.1.7-4.2.7-5.5-.4-4.1-3.1-2.1-8.1-2.1-8.1l1.5-10.7,10.6-6.6,1.6-1,2.9,15.9c.2,5.2-4.5,9.6-8.9,11Z"></path><path class="cls-4" d="M218,225.4c-2.1.7-4.2.7-5.5-.4-4.1-3.1-2.1-8.1-2.1-8.1l1.5-10.7,10.6-6.6,1.2,1s-3.3,6.7-7,10.9c-2.8,3.2-.5,10.2,1.4,14Z"></path><g><path class="cls-1" d="M224.9,203.5s-6.6,6.3-13.6,6.1l.5-3.4,12.4-6.6.7,3.9Z"></path><path class="cls-1" d="M211.7,209.9c0,0-.2,0-.3,0h-.3s.5-3.9.5-3.9l12.8-6.9.8,4.5h-.1c-.3.4-6.6,6.3-13.5,6.3ZM212.1,206.3l-.4,3c6.2,0,12-5.2,12.9-6l-.6-3.4-11.9,6.4Z"></path></g><path class="cls-1" d="M215.3,226.2c-1.2,0-2.2-.3-3-.9-4.2-3.2-2.2-8.4-2.2-8.5l1.5-10.7c0,0,0-.2.1-.2l12.2-7.6c0,0,.2,0,.3,0,0,0,.2.1.2.2l2.9,15.9c.2,5.2-4.5,9.9-9.1,11.4h0c-1,.3-2,.5-2.8.5ZM212.1,206.3l-1.5,10.6c0,.3-1.8,4.9,2,7.9,1.2.9,3.1,1,5.3.3,4.4-1.4,8.9-5.8,8.7-10.7l-2.8-15.4-11.7,7.3ZM218,225.4h0,0Z"></path><path class="skin" d="M198.1,200.4c.3,1.2.6,2.3,1.1,3.3,3.1,6.9,10.4,7.1,17.8,3,4.2-2.3,7.1-6,8.7-10.2,1.3,1.2,4.4,3.3,6-1.3,1.8-5.1-1.3-9.6-4.4-7.1-.1,0-.2.2-.3.3-.7,1-1.3,2.1-1.7,3.3-.1.3-.2.6-.4.9-.4.5-1.1.7-1.7.5.1-.8.3-1.7.4-2.5.2-1.1.4-2.3.4-3.4-2.1-.4-4-1.4-5.7-2.6-2.2-1.6-4.1-3.7-5.7-6,0,0-.2,0-.2,0-6.8.9-8-3.3-8-3.3l-1.3,2c-2.4,3.8-4.1,8.1-5,12.5-.6,3.2-.8,6.8,0,10.5Z"></path><path class="cls-4" d="M199.2,203.7c3.1,6.9,10.4,7.1,17.8,3,4.2-2.3,7.1-6,8.7-10.2,1.3,1.2,4.4,3.3,6-1.3,1.8-5.1-1.3-9.6-4.4-7.1-.1,0-.2.2-.3.3-.7,1-1.3,2.1-1.7,3.3-.1.3-.2.6-.4.9-.4.5-1.1.7-1.7.5.1-.8.3-1.7.4-2.5.2-1.1.4-2.3.4-3.4-2.1-.4-4-1.4-5.7-2.6-2.2-1.6-4.1-3.7-5.7-6,0,0-.2,0-.2,0,2.3,5.7,10.6,9.7,6.3,18.6-5.9,12.3-14.8,7.8-19.5,6.5Z"></path><path class="cls-4" d="M217.9,215.2c.3-1.7,1.1-3.2,2.2-4.6.2-.3.5-.3.8-.2.4,0,.9.4.7.9-.4,1-.9,2-1.3,3-.3.7-.6,1.3-1.4,1.5-.5.1-1-.2-.9-.7Z"></path><g><path class="cls-12" d="M210.9,190.8s1.6-2.2,4.7-1.3c3,.8,3.1,2.9,3.1,2.9,0,0-1.7,2.3-4.4,1.5-2.7-.7-3.4-3.1-3.4-3.1Z"></path><g class="cls-10"><circle class="cls-1" cx="213.6" cy="191.9" r="2"></circle></g></g><path class="cls-1" d="M205.2,197.3s0,0,0,0c-.8-.3-1.3-.9-1.5-1.7-.2-.8.1-1.6.7-2.1.7-.6,2.3-2.5,2.7-5,0-.2.2-.3.3-.2.2,0,.3.2.2.3-.4,2.6-2,4.6-2.9,5.3-.4.3-.6,1-.5,1.5,0,.3.3.9,1.1,1.2.2,0,.2.2.2.4,0,.1-.2.2-.3.2Z"></path><path class="cls-1" d="M210.9,200.4c-.5,0-1-.2-1.5-.5-.1-.1-.2-.3,0-.4.1-.1.3-.2.4,0,.5.4,1.1.5,1.7.3.6-.3,1-.9,1-1.7,0-.2.2-.3.3-.3.2,0,.3.2.3.3,0,1.1-.6,1.9-1.4,2.2-.3.1-.5.2-.8.2Z"></path><path class="cls-1" d="M219,189.4c-.1,0-.2,0-.3-.2-.4-.9-1.5-1.6-2.8-1.9-1.4-.4-2.9-.1-3.8.5-.1,0-.3,0-.4,0,0-.1,0-.3,0-.4,1.1-.8,2.7-1,4.3-.6,1.5.4,2.7,1.2,3.2,2.2,0,.1,0,.3-.1.4,0,0,0,0-.1,0Z"></path><path class="cls-1" d="M207.2,186.5c0,0-.2,0-.2-.1,0,0-1.8-2.4-4.1-1.3-.2,0-.3,0-.4-.1,0-.2,0-.3.1-.4,2.7-1.3,4.8,1.5,4.9,1.5,0,.1,0,.3,0,.4,0,0-.1,0-.2,0Z"></path><path class="cls-1" d="M215.6,189.4s1.5.3,2.3,1.3,1.2,1.9,1.5,2l-.5.4s-1.3-3-3.3-3.8Z"></path><g><path class="cls-12" d="M206.7,189.6s-.4-2.3-3.1-2.8c-2.6-.5-3.5,1.1-3.5,1.1,0,0,.4,2.4,2.8,2.8,2.4.5,3.7-1.1,3.7-1.1Z"></path><g class="cls-9"><circle class="cls-1" cx="203.4" cy="189.1" r="1.7"></circle></g></g><path class="cls-1" d="M203.6,186.8s-1.2-.3-2.3.1-1.6,1-1.9,1l.2.5s2.1-1.8,4-1.6Z"></path><path class="cls-1" d="M207.8,209.7c-1.2,0-2.3-.2-3.3-.5-2.5-.8-4.4-2.6-5.6-5.4-.5-1-.8-2.1-1.1-3.4h0c-.7-3.2-.7-6.8,0-10.6.8-4.5,2.5-8.7,5-12.6l1.3-2c0,0,.2-.1.3-.1.1,0,.2,0,.2.2,0,.2,1.3,3.9,7.7,3.1h.2c.1,0,.2,0,.3,0,1.9,2.6,3.7,4.5,5.7,5.9,1.8,1.3,3.7,2.2,5.6,2.6.1,0,.2.2.2.3,0,1.2-.2,2.5-.4,3.5l-.4,2.2c.4,0,.8-.1,1.1-.5.2-.2.3-.5.4-.8h0c.4-1.2,1-2.4,1.7-3.4.1-.2.3-.3.4-.3,1.1-.9,2.4-1.1,3.4-.3,1.6,1.1,2.6,4.2,1.4,7.7-.6,1.7-1.5,2.7-2.5,3-1.4.3-2.8-.5-3.6-1.3-1.8,4.4-4.8,7.8-8.7,10-3.3,1.8-6.5,2.7-9.3,2.7ZM204.3,176l-1,1.6c-2.5,3.9-4.1,8-4.9,12.4-.7,3.7-.7,7.2,0,10.4h0c.3,1.2.6,2.3,1,3.2,1.2,2.6,2.9,4.3,5.3,5.1,3.2,1.1,7.6.3,12.1-2.2,3.8-2.1,6.8-5.6,8.6-10,0,0,.1-.2.2-.2,0,0,.2,0,.3,0,.7.7,2.1,1.7,3.4,1.4.9-.2,1.6-1.1,2.1-2.6,1.1-3.1.3-6-1.2-7-.8-.6-1.8-.5-2.7.3,0,0-.2.2-.3.3-.6,1-1.2,2.1-1.6,3.2h0c-.1.4-.2.7-.5,1-.5.6-1.3.9-2,.6-.1,0-.2-.2-.2-.3l.4-2.5c.2-.9.3-2.1.4-3.2-1.9-.4-3.8-1.4-5.6-2.6-2-1.4-3.8-3.3-5.7-5.9h0c-5.4.7-7.4-1.8-8.1-3Z"></path><path class="cls-1" d="M227,192.1s0,0-.1,0c-.2,0-.2-.2-.1-.4,0,0,1-2,2.3-2.4.5-.1,1,0,1.5.4.1.1.2.3,0,.4-.1.1-.3.2-.4,0-.3-.3-.7-.3-1-.3-.9.2-1.7,1.5-1.9,2,0,.1-.2.2-.3.2Z"></path><path class="cls-1" d="M230,192.1c-.1,0-.3-.1-.3-.2-.2-1-1.1-1.9-1.1-1.9-.1-.1-.1-.3,0-.4.1-.1.3-.1.4,0,0,0,1,1,1.2,2.2,0,.2,0,.3-.2.3,0,0,0,0,0,0Z"></path><path class="cls-1" d="M204.3,175.6c-.1,0-.2,0-.3-.1-1.8-2.8-1.2-5.2-1.1-5.3,0-.2.2-.3.4-.2.2,0,.3.2.2.4,0,0-.5,2.2,1.1,4.8,0,.1,0,.3,0,.4,0,0-.1,0-.2,0Z"></path></g><g><path class="cls-1" d="M180.2,310h-2.6s-.3-11.6-.4-26.3l2.9,26.3Z"></path><path class="cls-1" d="M180.2,310.3h-2.5c-.2,0-.3-.1-.3-.3,0-.1-.3-11.8-.4-26.3,0-.2.1-.3.3-.3.1,0,.3.1.3.3l2.9,26.3c0,0,0,.2,0,.2s-.1,0-.2,0ZM178,309.7h1.9l-2.2-20.1c0,10.5.3,18.5.3,20.1Z"></path></g><path class="cls-1" d="M177.3,284.1c-.2,0-.3-.1-.3-.3v-.3c0,0,0-.1,0-.2,0-15,0-27.4.4-36.9,0-.2.1-.3.3-.3h0c.2,0,.3.1.3.3-.3,9.6-.5,22.1-.4,37.3,0,.2-.1.3-.3.3h0Z"></path><g><path class="cls-1" d="M272.2,310h-8.9s-1.8-3.2-3.6-6.4c-1.7-3.3-4.6-10.5-7.2-21.5,3.9,11.5,10.4,25.2,19.7,28Z"></path><path class="cls-1" d="M272.2,310.3h-8.9c-.1,0-.2,0-.3-.1,0,0-1.9-3.2-3.6-6.5-.9-1.7-4-8.2-7.2-21.6,0-.2,0-.3.2-.4.2,0,.3,0,.4.2,3.8,11.1,10.2,25,19.5,27.8.1,0,.2.2.2.3,0,.1-.1.3-.3.3ZM263.4,309.7h7.1c-7.2-3.2-12.6-12.8-16.3-22,2.6,9.5,5,14.3,5.7,15.7,1.5,2.8,3.1,5.6,3.5,6.3Z"></path></g><path class="cls-1" d="M252.5,282.4c-.1,0-.2,0-.3-.2-3.1-9-4.6-16.8-4.6-16.9,0-.2,0-.3.2-.4.2,0,.3,0,.4.2,0,0,1.5,7.8,4.5,16.8,0,.2,0,.3-.2.4,0,0,0,0,0,0Z"></path></g></svg>