<svg transform="scale(1)" version="1.1" id="Layer_1" xmlns="http://www.w3.org/2000/svg" xmlns:xlink="http://www.w3.org/1999/xlink" x="0px" y="0px" viewBox="0 0 500 500" xml:space="preserve" class="show_show__wrapper__graphic__5Waiy "><title>React</title><style type="text/css">
	.st0{fill:#093F68;}
	.st1{fill:#68E1FD;}
	.st2{fill:#F56132;}
	.st3{fill:#FFC9B0;}
	.st4{fill:#725858;}
	.st5{fill:#FFFFFF;}
</style><g id="bed"><path class="st0" d="M122.2,212.3H375c7.5,0,13.6,6.1,13.6,13.6v107.2l0,0h-280l0,0V225.9C108.6,218.4,114.7,212.3,122.2,212.3
		L122.2,212.3z"></path><path class="st0" d="M388.6,335.1H108.6c-1.1,0-2-0.9-2-2v-108c0-8.2,6.6-14.8,14.8-14.8h254.5c8.2,0,14.8,6.6,14.8,14.8v108
		C390.7,334.2,389.8,335.1,388.6,335.1C388.7,335.1,388.7,335.1,388.6,335.1z M110.6,331h276V225c0-5.9-4.8-10.7-10.7-10.7H121.3
		c-5.9,0-10.7,4.8-10.7,10.7L110.6,331z"></path><path class="st1" d="M410.1,346v85.3c0,2.2-1.8,4-4,4h-35.3c-2.2,0-4-1.8-4-4v-32.8c0-3.1-2.5-5.6-5.6-5.6c0,0,0,0,0,0H138.8
		c-3.1,0-5.6,2.5-5.6,5.6c0,0,0,0,0,0v32.8c0,2.2-1.8,4-4,4H93.9c-2.2,0-4-1.8-4-4V346c0-7.1,5.8-12.9,12.9-12.9c0,0,0,0,0,0h294.4
		C404.3,333.1,410.1,338.8,410.1,346C410.1,346,410.1,346,410.1,346z"></path><path class="st0" d="M406.1,437.4h-35.3c-3.3,0-6.1-2.7-6.1-6.1v-32.8c0-2-1.6-3.5-3.5-3.5H138.8c-2,0-3.5,1.6-3.5,3.5v32.8
		c0,3.3-2.7,6.1-6.1,6.1H93.9c-3.3,0-6.1-2.7-6.1-6.1V346c0-8.3,6.7-15,15-15l0,0h294.4c8.3,0,15,6.7,15,15l0,0v85.3
		C412.2,434.7,409.5,437.4,406.1,437.4C406.1,437.4,406.1,437.4,406.1,437.4z M138.8,390.9h222.5c4.2,0,7.6,3.4,7.6,7.6v32.8
		c0,1.1,0.9,2,2,2h35.3c1.1,0,2-0.9,2-2V346c0-6-4.9-10.9-10.9-10.9H102.8c-6,0-10.9,4.9-10.9,10.9v85.3c0,1.1,0.9,2,2,2h35.3
		c1.1,0,2-0.9,2-2v-32.8C131.2,394.3,134.6,390.9,138.8,390.9z"></path></g><g id="character"><path class="st2" d="M317.1,313v-50c0-20.9-17-37.9-37.9-37.9h-59.8c-20.9,0-37.9,17-37.9,37.9v50.1L317.1,313z"></path><path class="st0" d="M317.1,315.1H181.5c-1.1,0-2-0.9-2-2V263c0-22.1,17.8-39.9,39.9-40h59.8c22.1,0,39.9,17.9,39.9,40v50.1
		C319.1,314.2,318.2,315.1,317.1,315.1C317.1,315.1,317.1,315.1,317.1,315.1z M183.5,311H315v-48c0-19.8-16.1-35.8-35.9-35.9h-59.7
		c-19.8,0-35.8,16.1-35.9,35.9V311z"></path><path class="st3" d="M241.2,217.9h19l0,0v15c0,2.2-1.8,4-4,4h-11.1c-2.2,0-4-1.8-4-4L241.2,217.9L241.2,217.9z"></path><path class="st0" d="M252.1,238.9h-2.9c-5.6,0-10.1-4.5-10.1-10.1v-10.9c0-1.1,0.9-2,2-2h19c1.1,0,2,0.9,2,2v10.9
		C262.1,234.3,257.7,238.8,252.1,238.9z M243.2,219.9v8.9c0,3.3,2.7,6,6,6h2.9c3.3,0,6-2.7,6-6v0v-8.9H243.2z"></path><path class="st4" d="M183.4,164.6c-0.4-7.5-0.5-14.9-0.1-22.4c0,1-8.3-3.7-8.9-4.3c-2.5-2.5-4.2-5.8-4.6-9.3
		c-0.7-6.3,1.2-12.6,5.2-17.5c1.8-2.2,3.7-3,4.6-5.5c1.2-3.6-0.1-8.4,1-12.3c1.3-4.4,4.2-8.6,8.4-10.5s9.7-1.1,12.6,2.5
		c-1.9-2.4,4.7-10.8,6.2-12.3c3.4-3.7,7.9-6,12.9-6.7c5.4-0.8,12.3,1,13.6,6.3c6.6-8.8,19.2-10.6,28-4c4.6,3.5,7.5,8.7,7.9,14.4
		c6.8-2.9,14.6-4.4,21.5-1.8S304,91.5,302,98.6c4.7-1.2,9.6-2.4,14.3-1.3c16.1,3.7,19,27,5.4,35.8c-0.6,0.3-1.1,0.7-1.6,1.2
		c-0.5,0.7-0.8,1.6-0.9,2.4c-1.1,6.8-2.3,13.5-3.5,20.3c-1.3,7.9-0.7,8-7.6,10.6c-13.2,4.9-24.1,9.1-38.6,9.3
		c-15.5,0.2-30.9-2.2-46.4-2.5c-6-0.1-12,0.1-18,0.4c-3.5,0.2-14.6,3-17.4,1.2S183.7,169.5,183.4,164.6z"></path><path class="st0" d="M267.5,179c-8,0-16.1-0.6-24-1.3c-6.7-0.5-13.6-1.1-20.4-1.2c-5.3-0.1-10.9,0-17.8,0.4
		c-0.9,0.1-2.6,0.3-4.4,0.6c-6.8,1.1-11.8,1.8-14.2,0.2c-4.1-2.6-5-8.7-5.3-13l0,0c-0.4-6.9-0.5-13.9-0.2-20.9
		c-2.9-1.3-5.6-2.8-8.2-4.6c-2.9-2.8-4.7-6.5-5.2-10.5c-0.8-6.8,1.3-13.7,5.6-19c0.6-0.8,1.4-1.5,2.1-2.2c0.9-0.7,1.7-1.6,2.1-2.7
		c0.4-1.8,0.6-3.6,0.4-5.3c-0.2-2.3,0-4.6,0.6-6.9c1.6-5.4,5.1-9.7,9.5-11.7c3.8-1.7,8.1-1.6,11.8,0.3c1.7-4.6,6.3-9.6,6.4-9.7
		c3.7-4,8.6-6.6,14-7.3c5.3-0.8,11.5,0.7,14.5,4.7c8.6-8.6,22.6-8.5,31.1,0.1c3,3.1,5.1,6.9,5.9,11.2c7.6-2.7,14.7-3,20.6-0.9
		c6.5,2.4,12.3,9,12,16.5c3.8-0.9,8.1-1.6,12.3-0.6c7.9,1.8,13.8,8.3,15.3,16.9c1.6,9.1-2,18-9.2,22.6l-0.3,0.2
		c-0.3,0.2-0.6,0.4-0.8,0.6c-0.2,0.5-0.4,1-0.4,1.5l-3.8,22.3c-1.1,6.6-1.6,7.6-8.6,10.2l-1,0.4c-12.8,4.7-23.8,8.8-38.3,9
		L267.5,179z M219.4,172.4c1.3,0,2.6,0,3.8,0c6.9,0.1,13.9,0.7,20.6,1.2c8.4,0.7,17.1,1.4,25.7,1.2c13.8-0.2,24.5-4.2,36.9-8.8
		l1-0.4c5.2-1.9,5.2-1.9,6-7l3.8-22.3c0.1-1.2,0.6-2.4,1.3-3.4c0.5-0.6,1.1-1.1,1.8-1.5l0.3-0.2c5.8-3.8,8.7-11,7.4-18.5
		c-1.2-7.1-5.8-12.2-12.2-13.7c-4.4-1-9.3,0.3-13.3,1.3c-1.1,0.3-2.2-0.2-2.5-1.3c-0.1-0.4-0.1-0.8,0-1.3c1.7-6.2-3.3-12.7-9-14.8
		c-6.9-2.6-14.7-0.5-20,1.8c-1,0.5-2.2,0-2.6-1c-0.1-0.2-0.2-0.5-0.2-0.7c-0.8-9.9-9.5-17.3-19.4-16.4c-5.1,0.4-9.7,3-12.8,7
		c-0.6,0.9-1.9,1.1-2.8,0.5c-0.4-0.3-0.7-0.7-0.8-1.2c-1-3.9-6.6-5.5-11.4-4.8c-4.5,0.6-8.6,2.7-11.7,6.1c-2.3,2.5-6.1,8.2-6,9.8
		c0.7,0.9,0.5,2.2-0.4,2.9c-0.9,0.7-2.2,0.5-2.9-0.4l0,0l0,0c-2.2-2.7-6.6-3.5-10.2-1.9c-3.4,1.5-6,4.9-7.3,9.2
		c-0.4,1.8-0.6,3.7-0.4,5.6c0.2,2.3,0,4.5-0.6,6.7c-0.7,1.7-1.8,3.2-3.2,4.4c-0.6,0.5-1.2,1.1-1.7,1.7c-3.6,4.5-5.3,10.2-4.7,15.9
		c0.4,3.1,1.8,5.9,4,8.1c2.2,1.4,4.6,2.7,7,3.8c0.2,0,0.3,0,0.5,0c1.1,0,2,0.9,2,2c0,0,0,0.1,0,0.1l0,0c-0.4,7.4-0.3,14.8,0.1,22.2
		l0,0c0.4,5.4,1.5,8.7,3.4,9.9c1.4,0.9,8.4-0.3,11.4-0.8c2-0.3,3.7-0.6,4.9-0.7C210.5,172.5,215.1,172.3,219.4,172.4L219.4,172.4z"></path><ellipse class="st3" cx="196.5" cy="168.6" rx="18.4" ry="15.9"></ellipse><path class="st0" d="M196.5,186.5c-11.3,0-20.5-8-20.5-17.9s9.2-17.9,20.5-17.9s20.5,8,20.5,17.9S207.8,186.5,196.5,186.5z
		 M196.5,154.7c-9,0-16.4,6.2-16.4,13.9s7.4,13.8,16.4,13.8s16.4-6.2,16.4-13.8S205.5,154.7,196.5,154.7z"></path><ellipse class="st3" cx="303.9" cy="168.6" rx="18.4" ry="15.9"></ellipse><path class="st0" d="M303.9,186.5c-11.3,0-20.5-8-20.5-17.9s9.2-17.9,20.5-17.9s20.5,8,20.5,17.9S315.2,186.5,303.9,186.5z
		 M303.9,154.7c-9,0-16.4,6.2-16.4,13.9s7.4,13.8,16.4,13.8s16.4-6.2,16.4-13.8S312.9,154.7,303.9,154.7z"></path><path class="st3" d="M250.7,220.3c-30.7,0-55.6-24.9-55.6-55.6c0-11.7,0.6-23.4,1.2-35.1c5.5-1.8,11.2-2.8,16.6-4.7
		c5.9-2.2,10.2-7.3,11.4-13.5c8.4,6.8,20.7,5.5,27.5-2.8c0.4-0.5,0.7-1,1.1-1.5c-1.4,2.1,9.6,5.9,11.1,5.9c4.9-0.1,10-2.6,13.6-5.8
		c-1.3,4.1,1.8,8.7,5.8,10.1s8.7,0.1,12.2-2.3c-1.3,3.7-0.4,7.9,2.3,10.8c2.7,2.8,5,4.3,8.7,3c0,0-0.5,23.6-0.5,36
		C306.3,195.4,281.4,220.3,250.7,220.3C250.7,220.3,250.7,220.3,250.7,220.3z"></path><path class="st0" d="M250.7,222.4c-31.8,0-57.6-25.8-57.6-57.6c0-12,0.7-24.3,1.2-35.2c0-0.8,0.6-1.6,1.4-1.8
		c2.7-0.9,5.5-1.6,8.2-2.3s5.7-1.4,8.4-2.4c5.2-2,9-6.5,10-12c0.2-1.1,1.2-1.9,2.3-1.7c0.4,0.1,0.8,0.2,1,0.5
		c7.5,6.1,18.5,5,24.7-2.5c0.4-0.4,0.7-0.9,1-1.3l0,0c0.6-1,1.8-1.3,2.7-0.7c0.7,0.4,1.1,1.2,1,2c1.6,1.4,7.7,3.6,9.1,3.8
		c4-0.1,8.7-2.2,12.2-5.3c0.8-0.8,2-0.8,2.8-0.1c0.6,0.6,0.8,1.4,0.5,2.2c-1,3.1,1.6,6.6,4.5,7.6s7,0.3,10.4-2.1
		c0.9-0.7,2.1-0.5,2.8,0.3c0.5,0.6,0.6,1.4,0.3,2.1c-1,3-0.3,6.3,1.9,8.6c2.7,2.8,4.2,3.3,6.6,2.5c0.6-0.2,1.3-0.1,1.9,0.3
		c0.5,0.4,0.8,1,0.8,1.7c0,0.2-0.5,23.7-0.5,36C308.3,196.6,282.5,222.3,250.7,222.4z M198.3,131.2c-0.6,10.4-1.1,22.2-1.1,33.6
		c-0.4,29.6,23.2,53.9,52.8,54.3c29.6,0.4,53.9-23.2,54.3-52.8c0-0.5,0-1,0-1.5c0-9.9,0.3-27.1,0.4-33.6c-3.5,0.2-6-1.9-8-4
		c-2.2-2.3-3.4-5.3-3.5-8.5c-3.2,1.4-6.9,1.6-10.2,0.5c-3.6-1.3-6.3-4.2-7.2-7.9c-3.4,2.3-7.4,3.6-11.5,3.8c-1.4,0.1-8-2-11.3-4.4
		c-6.9,7.7-18.3,9.5-27.2,4.1c-2,5.6-6.3,10-11.9,12.1c-2.9,1-5.9,1.8-8.7,2.5C202.7,129.9,200.5,130.5,198.3,131.2z"></path><path class="st0" d="M250.9,173.2c-1.7,0-3.4-0.1-5.1-0.4c-1.1-0.2-1.8-1.2-1.7-2.4c0.2-1.1,1.2-1.8,2.4-1.6
		c2.4,0.4,4.8,0.5,7.1,0.1c0-1.8-1.9-6.9-4.3-11.6c-0.5-1-0.1-2.3,0.9-2.8s2.3-0.1,2.8,0.9c1.8,3.5,5.9,12,4.4,15.5
		c-0.4,0.9-1.2,1.6-2.1,1.8C253.8,173.1,252.3,173.2,250.9,173.2z"></path><path class="st0" d="M212.4,314.1c-1.1,0-2-0.9-2-2v-56.4c0-1.1,0.9-2,2-2s2,0.9,2,2v56.4c0,1.1-0.9,2-2,2
		C212.5,314.1,212.4,314.1,212.4,314.1z"></path><path class="st0" d="M286.2,314.1c-1.1,0-2-0.9-2-2v-56.4c0-1.1,0.9-2,2-2s2,0.9,2,2v56.4c0,1.1-0.9,2-2,2
		C286.2,314.1,286.2,314.1,286.2,314.1z"></path><path class="st0" d="M249.2,314.1c-1.1,0-2-0.9-2-2v-75.3c0-1.1,0.9-2,2-2c1.1,0,2,0.9,2,2v75.2c0,1.1-0.9,2-2,2
		C249.3,314.1,249.3,314.1,249.2,314.1z"></path><ellipse class="st0" cx="249.2" cy="188.3" rx="5.7" ry="9.4"></ellipse><path class="st0" d="M249.2,199.8c-4.3,0-7.7-5-7.7-11.5s3.4-11.5,7.7-11.5s7.7,5,7.7,11.5S253.6,199.8,249.2,199.8z M249.2,180.9
		c-1.7,0-3.6,3.2-3.6,7.4s1.9,7.4,3.6,7.4s3.6-3.2,3.6-7.4S251,180.9,249.2,180.9z"></path><path class="st0" d="M286.9,147.2c-11.7,0-20.7-7.8-21.1-8.2c-1.7-1.5-1.9-4.1-0.4-5.7s4.1-1.9,5.7-0.4l0,0
		c0.1,0.1,10.2,8.7,20.9,5.4c2.2-0.7,4.4,0.5,5.1,2.7c0.7,2.2-0.5,4.4-2.7,5.1C292,146.8,289.5,147.2,286.9,147.2z"></path><path class="st0" d="M283.1,158.4c-0.7,0-1.3-0.3-1.7-0.9c-1.9-2.9-3.9-4.4-5.9-4.5c-3-0.2-5.5,2.4-5.5,2.4c-0.8,0.8-2,0.9-2.9,0.1
		c-0.8-0.8-0.9-2-0.1-2.9c0.2-0.2,3.8-4.2,8.8-3.8c3.4,0.3,6.4,2.4,9,6.4c0.6,0.9,0.4,2.1-0.5,2.8
		C284,158.3,283.5,158.4,283.1,158.4L283.1,158.4z"></path><path class="st0" d="M216.8,147.2c-2.5,0-5.1-0.4-7.5-1.1c-2.2-0.7-3.4-2.9-2.7-5.1s2.9-3.4,5.1-2.7l0,0
		c10.7,3.3,20.8-5.3,20.9-5.4c1.7-1.5,4.3-1.3,5.8,0.3s1.3,4.3-0.3,5.8C237.5,139.4,228.5,147.2,216.8,147.2z"></path><path class="st0" d="M220.6,158.4c-0.4,0-0.8-0.1-1.1-0.3c-0.9-0.6-1.2-1.8-0.6-2.8c0,0,0,0,0-0.1c2.6-4,5.6-6.1,9-6.4
		c5-0.4,8.7,3.6,8.8,3.8c0.8,0.8,0.7,2.1-0.1,2.9c-0.8,0.8-2.1,0.7-2.9-0.1c0-0.1-2.5-2.7-5.5-2.4c-2.1,0.2-4,1.7-5.9,4.5
		C222,158,221.3,158.4,220.6,158.4z"></path><path class="st3" d="M267.2,225.8c2.5-3.8,6.6-7.2,5.6-15.8c-0.8-6.1-13.3-18.8-18.6-13.6s-13.1,18.9-13.1,18.9s4.6-14.3-1.3-14
		c-4.8,0.2-8.7,23.4-10.6,30.5c-2.3,1.3-41.8,52.2-41.8,52.2c-5,7.8-6.8,21.6,0.6,27.2c11.8,8.9,22.8,2.7,26.2-2.6l37.5-68.5
		C258,236.7,263.3,231.8,267.2,225.8z"></path><path class="st0" d="M200.2,317.7c-4.9-0.1-9.7-1.8-13.5-4.9c-8.8-6.6-6.2-21.9-1.1-29.9c13.9-17.9,36.6-47,41.7-52.1
		c0.4-1.5,0.8-3.5,1.4-5.8c4-17.6,6.5-25.4,11-25.6c1.5-0.1,2.9,0.5,3.8,1.7c0.8,1.3,1.3,2.8,1.3,4.3c2.3-3.7,4.9-7.2,7.9-10.4
		c1.9-1.8,4.7-2.2,7.7-1.2c6.2,2.2,13.7,10.6,14.4,16c1,7.9-2.1,12-4.5,15.2c-0.5,0.6-1,1.3-1.4,1.9l0,0c-4,6.1-9.4,11.1-15.8,14.6
		l-37.2,68c-2.9,4.2-7.3,7-12.3,7.9C202.5,317.5,201.4,317.6,200.2,317.7z M239.9,203.3L239.9,203.3c-2.5,1.1-6,16.6-7.3,22.5
		c-0.6,2.6-1.1,4.9-1.6,6.5c-0.1,0.5-0.5,1-1,1.2c-2.2,1.8-26.4,32.6-41.2,51.6c-4.2,6.6-6.2,19.4,0.2,24.3
		c4.4,3.3,9.1,4.7,13.7,3.9c3.8-0.7,7.2-2.8,9.5-5.9l37.5-68.4c0.2-0.4,0.5-0.7,0.9-0.9c6-3.2,11-7.8,14.7-13.4
		c0.5-0.7,1-1.4,1.5-2.1c2.3-3.1,4.5-6.1,3.7-12.3c-0.5-3.6-6.7-10.9-11.7-12.7c-2.4-0.8-3.3,0-3.5,0.3
		c-5.1,4.9-12.6,18.3-12.7,18.4c-0.4,1-1.6,1.5-2.7,1.1s-1.5-1.6-1.1-2.7c1.4-4.3,2.2-9.9,1.1-11.2
		C240.2,203.4,240.1,203.3,239.9,203.3z M267.2,225.8L267.2,225.8z"></path></g><g id="blanket"><path class="st5" d="M103.2,333.1c0,0-0.6-17.4,11.1-24.6s10.6-2.2,26.7-8.9s23.3-13.9,36.7-11.1s22.8,6.6,39.4-0.6
		s23.9-9.4,39.5-4.4s23.9,6.7,49.5,1.7s23.9,1.7,42.2,6.7s26.7,8.6,36.7,15.1s12.2,26.2,12.2,26.2L103.2,333.1z"></path><path class="st0" d="M397.2,335.1h-294c-1.1,0-2-0.9-2-2c0-0.8-0.4-18.7,12.1-26.4c6.6-4,9.4-4.5,13-5c4.8-0.7,9.5-2,13.9-4
		c4.4-1.8,8.2-3.7,11.5-5.4c8.9-4.5,16-8,26.3-5.8c1.8,0.4,3.4,0.7,5.1,1.1c10.8,2.5,19.3,4.4,33.2-1.6c17.4-7.5,24.9-9.6,40.9-4.5
		c15.6,5,23.8,6.4,48.4,1.6c18.3-3.6,23.3-1.3,30.8,2.1c4,1.9,8.1,3.4,12.4,4.6c18,4.9,26.7,8.5,37.3,15.4c10.7,7,13,26.8,13.1,27.6
		c0.1,1.1-0.6,2.1-1.7,2.2C397.3,335.1,397.2,335.1,397.2,335.1L397.2,335.1z M105.3,331h289.5c-0.9-5.2-3.8-17.7-11-22.4
		c-10.1-6.6-18.5-10.1-36.1-14.9c-4.5-1.2-8.8-2.8-13-4.8c-7.1-3.2-11.3-5.1-28.3-1.8c-25.6,5-34.2,3.5-50.5-1.7
		c-14.8-4.8-21.4-2.8-38,4.3c-15.1,6.5-24.6,4.3-35.7,1.8c-1.6-0.4-3.3-0.7-5-1.1c-8.9-1.9-14.8,1.1-23.7,5.5
		c-3.4,1.7-7.3,3.6-11.8,5.5c-4.7,2.1-9.7,3.6-14.9,4.3c-3.4,0.5-5.7,0.8-11.5,4.5C107.1,315.3,105.6,326.5,105.3,331z"></path><path class="st0" d="M169.6,303.4c-1.1,0.1-2-0.8-2.1-1.9c0-0.7,0.3-1.3,0.8-1.7c0.8-0.7,20.3-16.7,47.4-5.7c1,0.4,1.5,1.6,1.1,2.7
		c-0.4,1-1.6,1.5-2.7,1.1c-14.3-6.1-30.7-4.2-43.2,5C170.6,303.3,170.1,303.4,169.6,303.4z"></path></g></svg>